<?xml version="1.0" standalone="no"?>
<!DOCTYPE svg PUBLIC "-//W3C//DTD SVG 20010904//EN"
 "http://www.w3.org/TR/2001/REC-SVG-20010904/DTD/svg10.dtd">
<svg version="1.0" xmlns="http://www.w3.org/2000/svg"
 width="2000.000000pt" height="878.000000pt" viewBox="0 0 2000.000000 878.000000"
 preserveAspectRatio="xMidYMid meet">

<g transform="translate(0.000000,878.000000) scale(0.100000,-0.100000)"
fill="#000000" stroke="none">
<path d="M0 5130 c0 -3575 0 -3650 19 -3650 10 0 21 -7 25 -15 8 -23 -4 -45
-25 -45 -18 0 -19 -20 -19 -710 l0 -710 720 0 720 0 0 110 c0 67 -4 110 -10
110 -5 0 -10 18 -10 40 l0 40 -60 0 c-35 0 -60 4 -60 10 0 21 -47 57 -81 63
-19 3 -48 9 -65 12 -28 6 -31 4 -41 -27 -9 -28 -11 -18 -11 67 1 62 3 87 7 65
l7 -35 5 37 c3 21 1 45 -4 54 -5 9 -6 42 -2 73 6 51 11 96 14 129 2 20 31 13
31 -8 0 -18 7 -20 60 -20 33 0 60 4 60 10 0 6 37 10 90 10 53 0 90 4 90 10 0
6 -4 10 -10 10 -5 0 -10 9 -10 20 0 18 -7 20 -80 20 l-80 0 0 30 c0 17 -4 30
-10 30 -6 0 -10 40 -10 100 0 60 -4 100 -10 100 -5 0 -10 10 -11 23 0 21 -1
21 -9 2 -13 -33 -21 41 -11 105 8 55 9 55 10 13 0 -24 6 -43 11 -43 6 0 10 4
10 9 0 5 18 28 39 50 32 33 46 41 75 41 20 0 36 5 36 10 0 6 9 10 20 10 11 0
20 5 20 10 0 6 -9 10 -20 10 -13 0 -20 7 -20 20 0 17 -7 20 -40 20 -33 0 -40
3 -40 20 0 12 -7 20 -16 20 -9 0 -29 14 -44 30 l-29 31 -3 -48 -3 -48 -9 60
c-5 33 -14 63 -20 67 -16 10 -7 173 15 273 11 53 13 56 18 31 6 -29 7 -29 24
-11 15 14 21 16 27 5 7 -11 21 -11 84 0 42 8 76 18 76 22 0 4 14 8 30 8 29 0
30 1 30 50 0 49 -1 50 -30 50 l-30 0 0 61 0 60 -80 -2 c-44 -1 -83 1 -87 5
-16 15 -23 3 -23 -39 0 -25 -4 -45 -10 -45 -10 0 -6 351 5 386 5 16 13 20 31
16 13 -2 24 -8 24 -13 0 -5 32 -9 70 -9 40 0 70 4 70 10 0 6 33 10 80 10 47 0
80 -4 80 -10 0 -6 30 -10 70 -10 56 0 70 -3 70 -15 0 -20 45 -65 65 -65 8 0
15 9 15 20 0 13 7 20 20 20 13 0 20 7 20 20 0 13 7 20 20 20 11 0 20 5 20 10
0 6 -4 10 -10 10 -5 0 -10 5 -10 10 0 6 7 10 16 10 8 0 22 6 30 14 16 17 19
46 4 46 -5 0 -10 9 -10 20 0 17 7 20 50 20 49 0 50 -1 50 -30 0 -27 3 -30 30
-30 23 0 30 4 30 20 0 18 7 20 68 20 56 0 70 3 82 20 12 17 26 20 92 20 71 0
78 2 78 20 0 18 7 20 60 20 33 0 60 4 60 10 0 6 -4 10 -10 10 -5 0 -10 5 -10
10 0 6 14 10 30 10 27 0 30 3 30 30 l0 30 80 0 c66 0 80 3 80 16 0 30 27 44
83 44 35 0 57 5 60 13 4 9 8 8 16 -3 5 -8 13 -11 18 -7 4 5 1 13 -7 18 -11 8
-12 12 -3 16 7 2 13 13 13 24 0 10 5 19 10 19 6 0 10 -13 10 -30 l0 -30 60 0
c58 0 60 1 60 26 0 42 21 54 94 54 59 0 66 -2 66 -20 0 -13 7 -20 20 -20 13 0
20 7 20 18 0 10 9 24 20 32 11 8 20 18 20 22 0 4 -9 8 -20 8 -13 0 -20 7 -20
20 0 13 7 20 20 20 13 0 20 7 20 20 0 13 -7 20 -20 20 -13 0 -20 7 -20 20 0
12 7 20 16 20 22 0 53 32 36 38 -6 2 -12 12 -12 23 0 10 -4 19 -10 19 -5 0
-10 -9 -10 -20 0 -11 -4 -20 -10 -20 -5 0 -10 9 -10 20 0 13 -7 20 -20 20 -17
0 -20 7 -20 50 0 46 -2 50 -24 50 -14 0 -28 -5 -31 -10 -7 -12 -25 -13 -25 -2
0 8 49 32 67 32 7 0 13 9 13 20 0 11 -4 20 -10 20 -6 0 -10 30 -10 70 0 63 -2
70 -20 70 -11 0 -20 5 -20 10 0 6 -9 10 -20 10 -18 0 -20 7 -20 80 0 47 4 80
10 80 6 0 10 33 10 80 l0 80 -40 0 -40 0 0 40 c0 33 3 40 20 40 13 0 20 -7 20
-20 0 -11 5 -20 10 -20 6 0 10 27 10 60 0 53 2 60 20 60 11 0 20 5 20 10 0 6
9 10 20 10 15 0 20 7 20 24 0 14 5 28 10 31 6 3 10 24 10 46 l0 39 -80 0 -80
0 0 150 0 150 -30 0 c-16 0 -30 5 -30 10 0 6 -4 10 -10 10 -5 0 -10 -9 -10
-20 0 -13 7 -20 20 -20 13 0 20 -7 20 -20 0 -11 -4 -20 -10 -20 -5 0 -10 -9
-10 -20 0 -29 -45 -26 -75 5 -22 21 -25 33 -25 90 0 58 2 65 20 65 16 0 20 -7
20 -30 0 -16 5 -30 10 -30 6 0 10 33 10 80 l0 80 -40 0 -40 0 0 60 c0 53 2 60
20 60 16 0 20 7 20 30 0 23 4 30 20 30 13 0 20 7 20 20 0 13 7 20 20 20 11 0
20 5 20 12 0 9 3 9 12 0 18 -18 30 -14 23 8 -3 11 -2 20 4 20 5 0 13 9 16 20
5 17 15 20 66 20 74 0 88 12 96 82 7 55 21 78 47 78 11 0 16 9 16 30 0 17 -4
30 -10 30 -5 0 -10 9 -10 20 0 13 -7 20 -20 20 -17 0 -20 7 -20 40 l0 40 70 0
70 0 0 35 0 35 -70 0 -70 0 0 -35 0 -35 -70 0 -70 0 0 -40 c0 -22 -4 -40 -10
-40 -5 0 -10 -13 -10 -30 l0 -30 -160 0 c-100 0 -160 -4 -160 -10 0 -15 -117
-13 -124 3 -5 10 -7 10 -12 0 -4 -9 -31 -13 -85 -13 -46 0 -79 -4 -79 -10 0
-6 -28 -10 -64 -10 -75 0 -76 1 -76 102 0 86 -17 111 -52 79 -12 -12 -25 -21
-30 -21 -4 0 -8 -31 -8 -70 0 -63 -2 -70 -20 -70 -18 0 -20 -7 -22 -82 -2 -77
-2 -78 -5 -20 -3 54 -7 62 -23 62 -13 0 -20 7 -20 20 0 13 7 20 20 20 18 0 20
7 20 70 0 63 -2 70 -20 70 -11 0 -20 5 -20 10 0 6 5 10 10 10 6 0 10 5 10 10
0 6 -9 10 -20 10 -18 0 -20 7 -20 60 l0 60 -30 0 c-16 0 -30 4 -30 9 0 5 -16
12 -36 15 -19 4 -43 10 -51 13 -11 4 -14 2 -9 -5 4 -7 2 -12 -4 -12 -20 0 -40
28 -40 54 0 14 -4 26 -10 26 -5 0 -10 9 -10 20 0 13 -7 20 -20 20 -13 0 -20 7
-20 19 0 11 -6 21 -12 24 -8 2 -1 15 19 34 18 17 33 38 33 47 0 9 8 16 19 16
11 0 22 6 24 13 4 9 8 8 17 -3 9 -11 13 -12 17 -2 3 7 26 12 63 12 51 0 58 -2
64 -22 5 -20 8 -21 17 -8 8 11 12 12 16 3 6 -15 63 -18 63 -3 0 15 70 12 86
-4 20 -21 17 -28 -9 -22 -12 3 -16 3 -9 0 6 -3 12 -19 12 -35 0 -29 15 -40 22
-17 3 7 5 -29 7 -80 2 -77 0 -92 -13 -92 -11 0 -16 -10 -16 -30 0 -27 3 -30
30 -30 23 0 30 4 30 20 0 11 9 29 21 41 17 17 20 32 19 77 -3 87 -1 146 6 139
4 -3 13 0 21 8 10 11 39 15 103 15 79 0 89 2 95 20 3 10 2 28 -4 38 -6 11 -8
22 -4 25 3 4 -2 9 -11 13 -25 10 -19 21 15 28 20 4 38 1 52 -9 12 -8 32 -15
44 -15 16 0 23 -6 23 -20 0 -19 7 -20 140 -20 87 0 140 4 140 10 0 6 33 10 80
10 l80 0 0 236 c0 191 3 238 14 250 17 16 46 19 46 4 0 -5 5 -10 10 -10 15 0
12 67 -2 73 -10 4 -10 6 0 6 6 1 12 13 12 27 0 28 22 56 42 52 10 -2 14 16 16
70 2 39 7 72 12 72 6 0 10 14 10 30 0 17 5 30 10 30 6 0 10 9 10 20 0 16 7 20
30 20 23 0 30 -4 30 -20 0 -18 7 -20 64 -20 61 0 64 1 69 27 3 15 1 35 -4 45
-5 9 -9 35 -9 57 0 22 -5 42 -12 44 -8 4 -7 6 3 6 12 1 18 -9 21 -31 3 -18 19
-85 37 -149 17 -64 31 -127 31 -141 0 -13 4 -28 9 -34 9 -9 92 -330 96 -370 1
-11 5 -26 9 -33 9 -13 63 -218 122 -456 19 -77 39 -156 45 -175 6 -19 11 -46
13 -60 1 -14 8 -38 14 -53 7 -16 12 -33 12 -39 0 -6 11 -50 25 -97 13 -47 38
-142 56 -211 47 -190 66 -262 77 -297 6 -17 8 -34 5 -37 -3 -2 -1 -11 3 -18 5
-7 9 -17 10 -23 1 -5 12 -48 24 -94 16 -61 19 -89 12 -105 -28 -60 -46 -104
-53 -131 -8 -33 -73 -212 -93 -260 -7 -16 -23 -57 -36 -90 -12 -33 -27 -68
-32 -78 -5 -10 -22 -55 -39 -100 -16 -45 -34 -91 -39 -102 -5 -11 -23 -58 -41
-105 -17 -47 -35 -89 -39 -95 -4 -5 -13 -26 -18 -45 -14 -48 -74 -204 -101
-262 -11 -26 -21 -50 -21 -53 0 -4 -6 -21 -14 -38 -7 -18 -23 -59 -35 -92 -13
-33 -27 -69 -32 -80 -13 -29 -60 -157 -66 -180 -3 -11 -15 -42 -27 -70 -13
-27 -31 -75 -40 -105 -9 -30 -24 -67 -32 -82 -8 -14 -14 -32 -14 -40 0 -8 -11
-38 -25 -66 -14 -29 -25 -60 -25 -70 0 -10 -5 -23 -11 -29 -6 -6 -9 -17 -6
-25 5 -15 71 123 87 184 6 22 20 54 31 71 10 18 19 41 19 53 0 11 4 24 8 30 5
5 19 36 31 69 13 33 31 80 41 105 10 25 31 77 45 115 15 39 33 84 40 100 30
71 119 307 152 400 13 39 32 88 42 110 10 22 24 58 31 80 7 22 16 44 21 50 5
5 9 16 9 24 0 8 23 72 50 143 48 124 130 335 172 448 12 30 25 59 30 65 4 5 8
17 8 26 0 9 6 19 13 22 23 9 40 -9 34 -34 -2 -13 -17 -82 -32 -154 -23 -114
-52 -203 -99 -310 -8 -16 -24 -55 -36 -85 -11 -30 -27 -68 -35 -85 -23 -51
-38 -90 -40 -100 -3 -10 -57 -146 -81 -202 -8 -17 -14 -34 -14 -38 0 -3 -9
-26 -20 -49 -11 -24 -40 -95 -65 -157 -25 -63 -50 -123 -55 -134 -4 -11 -20
-46 -34 -79 -14 -32 -26 -63 -26 -69 0 -5 -9 -28 -19 -51 -25 -54 -91 -220
-91 -229 0 -3 -11 -31 -25 -61 -14 -30 -25 -59 -25 -64 0 -5 -11 -35 -25 -65
-14 -31 -28 -64 -30 -74 -2 -10 -20 -58 -40 -107 -35 -87 -44 -126 -14 -63 9
18 25 52 37 77 12 25 22 53 22 62 0 9 4 19 9 23 6 3 33 65 61 138 28 72 59
150 69 172 36 76 84 190 101 240 18 50 71 182 95 240 8 17 21 50 30 75 10 25
26 64 36 87 10 24 19 47 19 53 0 6 4 18 10 28 5 9 32 76 60 147 28 72 55 139
60 150 4 11 18 49 31 85 21 61 49 111 36 65 -16 -55 -37 -149 -52 -225 -9 -47
-20 -94 -25 -105 -5 -11 -16 -51 -23 -90 -8 -38 -29 -105 -46 -147 -18 -43
-30 -81 -27 -87 3 -5 2 -22 -3 -37 -10 -33 -47 -204 -55 -249 -2 -16 -16 -72
-30 -124 -14 -52 -32 -124 -40 -160 -23 -107 -63 -243 -72 -250 -5 -3 -10 -28
-10 -54 -2 -51 -26 -151 -75 -305 -16 -51 -29 -103 -29 -117 0 -27 -26 -143
-39 -178 -5 -12 -17 -49 -26 -82 -9 -33 -27 -85 -40 -115 -12 -30 -38 -134
-55 -230 -18 -96 -59 -278 -92 -405 -32 -126 -65 -258 -73 -292 -7 -34 -20
-72 -28 -85 -8 -13 -18 -48 -22 -78 -3 -30 -9 -63 -11 -73 -5 -15 3 -17 69
-17 l74 0 9 42 9 43 46 -43 c43 -39 79 -54 79 -33 0 4 -25 32 -56 61 l-56 53
11 53 c14 59 15 60 92 101 l56 30 49 -39 c26 -22 80 -68 119 -103 39 -35 88
-77 110 -93 22 -16 50 -39 63 -51 12 -13 32 -21 44 -19 23 3 25 1 -222 214
-63 55 -114 103 -113 109 1 5 50 34 110 66 59 31 153 81 208 111 147 80 139
79 131 11 -3 -32 -13 -128 -21 -213 -8 -85 -17 -188 -21 -227 -6 -64 -5 -73
10 -73 9 0 16 8 16 20 0 33 40 452 48 497 l7 42 59 -55 59 -55 -7 -107 c-9
-128 -12 -164 -16 -177 -1 -5 -2 -45 -1 -87 1 -56 5 -78 14 -78 9 0 16 44 25
167 7 93 12 185 12 206 0 20 4 37 8 37 5 0 36 -26 69 -57 33 -32 101 -96 152
-142 50 -46 91 -87 91 -90 0 -4 -24 -25 -54 -47 -30 -21 -59 -47 -65 -56 -10
-16 -7 -18 32 -18 33 0 49 6 67 25 32 34 85 34 122 0 25 -23 68 -34 68 -17 0
4 -15 19 -34 34 -55 44 -46 68 56 154 47 41 92 74 98 74 6 0 78 -61 160 -135
81 -74 156 -135 166 -135 18 0 19 13 19 264 0 145 3 267 6 271 6 6 65 -28 100
-57 8 -7 36 -24 62 -38 l47 -25 2 -165 c1 -91 2 -184 1 -207 -1 -36 2 -43 18
-43 18 0 18 9 12 197 -5 167 -4 195 8 188 8 -5 43 -27 79 -50 36 -23 108 -68
160 -100 52 -32 105 -66 117 -75 l23 -18 -48 -41 c-26 -23 -63 -55 -82 -71
l-35 -30 37 0 c20 0 38 3 40 8 4 10 93 82 102 82 3 0 6 -20 6 -45 0 -45 0 -45
35 -45 40 0 40 2 20 60 -8 24 -14 44 -13 45 12 7 121 25 126 21 3 -4 8 -33 10
-66 4 -55 6 -60 28 -60 22 0 24 3 18 28 -4 15 -11 37 -15 50 -18 48 -10 79 38
143 45 61 47 63 54 39 4 -14 7 -78 8 -142 1 -66 5 -118 10 -118 6 0 12 17 14
38 l4 37 1 -37 c2 -31 6 -38 22 -38 25 0 25 19 4 131 -9 46 -20 113 -24 149
-5 36 -24 151 -43 255 -74 406 -107 613 -108 674 -1 35 -8 75 -15 90 -14 28
-35 139 -73 376 -5 33 -21 134 -36 225 -15 91 -29 179 -31 195 -2 17 -11 72
-20 123 l-16 92 26 33 c15 17 38 46 51 62 13 17 59 80 102 140 43 61 94 131
113 157 19 26 55 77 80 113 25 37 54 77 65 90 11 13 37 47 57 77 21 29 63 89
95 133 31 44 83 118 116 165 66 93 114 160 148 203 12 15 20 30 17 32 -5 5
-24 -19 -116 -146 -42 -59 -93 -128 -112 -154 -19 -27 -44 -62 -55 -79 -17
-28 -127 -177 -161 -219 -8 -9 -14 -21 -14 -25 0 -4 -24 -37 -53 -74 -77 -97
-127 -168 -127 -178 0 -4 -4 -10 -8 -12 -11 -4 -132 -168 -145 -195 -5 -13
-13 -23 -17 -23 -4 0 -20 -19 -36 -41 -28 -40 -29 -41 -35 -18 -14 50 -7 68
62 160 39 52 73 100 77 108 3 7 33 50 66 95 59 79 103 142 301 426 130 188
174 250 255 364 38 55 70 105 70 110 -1 10 -34 -29 -55 -65 -22 -38 -221 -318
-307 -435 -27 -35 -48 -68 -48 -74 0 -5 -4 -10 -9 -10 -5 0 -11 -8 -15 -17 -3
-10 -37 -61 -76 -113 -38 -52 -75 -103 -82 -113 -7 -11 -21 -29 -32 -40 -10
-12 -30 -40 -43 -62 -33 -51 -177 -245 -180 -241 -2 1 -7 29 -12 62 -5 32 -23
138 -41 234 -17 96 -30 187 -27 202 2 15 -1 29 -6 31 -8 2 -14 29 -32 127 -2
14 -9 54 -14 90 -5 36 -21 130 -36 210 -14 80 -32 194 -40 254 -9 59 -17 111
-19 115 -3 4 -14 65 -26 136 -29 174 -29 282 -2 360 22 65 75 201 97 250 29
65 65 162 65 177 0 23 81 246 133 368 25 58 49 119 52 135 15 64 55 178 129
362 42 106 76 201 76 210 0 18 17 63 91 241 22 52 37 97 34 101 -6 10 72 217
110 290 15 30 29 71 31 90 2 20 16 70 32 111 l28 75 80 -1 c70 -2 469 -36 739
-64 118 -12 417 -39 530 -47 44 -3 86 -10 93 -16 17 -14 15 -76 -3 -83 -17 -7
-20 -34 -4 -34 8 0 7 -6 -2 -17 -11 -13 -11 -17 -1 -21 10 -3 10 -7 0 -20 -9
-11 -10 -16 -1 -19 7 -3 9 -20 7 -45 -3 -27 1 -45 9 -50 8 -5 8 -8 1 -8 -13 0
-14 -104 -1 -116 4 -4 1 -14 -6 -22 -10 -12 -9 -16 1 -20 10 -3 10 -7 1 -19
-10 -12 -10 -16 2 -24 12 -8 12 -10 0 -18 -11 -7 -12 -13 -3 -23 9 -11 9 -17
0 -26 -8 -8 -7 -13 5 -18 10 -3 14 -11 10 -18 -12 -18 -12 -70 1 -78 8 -6 8
-8 -1 -8 -17 0 -17 -27 0 -33 9 -4 9 -6 0 -6 -16 -1 -17 -31 -2 -31 8 0 8 -5
-1 -15 -10 -12 -10 -18 0 -30 9 -10 9 -15 1 -15 -6 0 -11 -7 -11 -15 0 -8 5
-15 11 -15 8 0 7 -5 -2 -16 -10 -13 -10 -17 2 -25 12 -8 12 -10 -1 -19 -13 -9
-13 -12 3 -24 17 -13 17 -14 0 -21 -17 -6 -17 -7 1 -21 20 -14 20 -14 0 -28
-18 -14 -18 -15 -1 -21 17 -7 17 -8 0 -20 -17 -13 -17 -14 0 -20 14 -6 15 -10
6 -21 -9 -12 -8 -17 6 -28 18 -13 17 -14 -13 -21 -26 -5 -34 -13 -44 -48 -6
-23 -38 -80 -69 -127 -100 -148 -411 -601 -467 -680 l-24 -35 26 30 c25 29
184 254 319 454 17 24 38 46 48 48 10 3 21 13 24 23 3 10 14 28 25 40 11 13
20 30 20 39 0 20 60 109 119 177 42 49 44 50 77 40 31 -10 34 -14 28 -40 -6
-28 -119 -198 -135 -204 -5 -2 -9 -8 -9 -13 0 -8 -171 -256 -269 -389 -14 -19
-18 -29 -9 -22 8 7 29 31 44 55 30 43 138 194 152 212 5 6 17 23 26 38 10 15
23 27 30 27 14 1 71 80 71 100 1 21 80 136 116 167 16 15 29 32 29 39 0 7 18
27 40 44 22 17 40 37 40 43 0 6 -20 -9 -45 -33 -24 -24 -48 -40 -52 -36 -5 5
3 16 17 25 80 52 103 101 41 87 l-26 -6 24 21 c18 15 22 22 13 28 -9 5 56 74
200 212 771 740 1218 1169 1418 1364 96 93 242 235 325 315 174 168 376 364
630 611 99 96 259 251 355 344 369 358 420 408 415 413 -3 3 -47 -35 -98 -84
-174 -169 -772 -749 -957 -930 -329 -321 -534 -520 -566 -550 -45 -41 -489
-469 -684 -659 -200 -195 -529 -511 -641 -615 -14 -14 -75 -72 -135 -130 -60
-58 -158 -152 -218 -208 -59 -57 -109 -109 -110 -116 -3 -22 -36 -66 -48 -66
-8 0 -6 6 4 17 16 15 16 17 0 29 -11 8 -12 13 -4 14 19 0 14 30 -5 30 -15 0
-14 2 3 15 16 12 17 16 5 24 -12 8 -12 12 -2 25 11 13 11 17 -3 22 -15 6 -15
8 1 20 17 12 17 13 -1 27 -18 14 -18 14 0 21 19 7 19 8 0 22 -11 8 -15 14 -8
14 12 0 11 57 -1 78 -5 7 -4 12 2 12 15 0 14 27 -1 33 -10 4 -10 6 0 6 15 1
16 31 1 31 -8 0 -8 5 1 15 10 11 10 18 1 29 -9 11 -9 15 1 19 10 4 9 9 -4 19
-15 13 -15 15 0 26 15 10 15 12 2 21 -13 10 -13 12 0 21 13 9 13 11 1 19 -12
8 -12 12 -2 24 8 11 9 17 1 22 -8 5 -8 11 1 21 9 11 8 15 -5 20 -10 4 -13 11
-8 18 11 13 10 56 -1 74 -5 7 -4 12 2 12 6 0 11 7 11 15 0 8 -5 15 -11 15 -8
0 -7 6 2 17 11 13 11 17 1 21 -10 3 -10 7 -1 18 9 11 9 17 0 28 -9 11 -9 15 1
18 10 4 10 8 1 20 -9 10 -9 18 -2 25 8 8 8 13 0 17 -8 5 -8 13 -1 26 8 15 6
20 -8 24 -20 7 -31 76 -12 76 6 0 15 11 20 25 5 13 23 31 40 40 16 8 30 20 30
26 0 5 -20 -2 -44 -16 l-45 -26 -40 20 c-22 11 -43 30 -46 42 -5 15 -9 18 -15
9 -9 -15 -39 1 -275 145 -88 54 -189 116 -225 137 -353 213 -590 364 -590 377
0 12 72 167 162 349 76 153 82 163 107 160 22 -3 27 -9 31 -43 6 -48 15 -38
24 28 l7 47 -30 0 c-24 0 -31 5 -31 19 0 14 -12 21 -57 30 -80 16 -87 15 -106
-19 -15 -25 -90 -84 -159 -125 -16 -9 -124 -86 -257 -180 -31 -23 -74 -51 -96
-65 -22 -13 -62 -42 -90 -64 -152 -125 -167 -130 -305 -105 -57 10 -106 21
-109 24 -4 5 31 75 92 185 11 19 49 89 85 155 35 66 72 134 82 150 10 17 47
84 82 150 36 66 121 221 188 345 68 124 135 248 150 276 15 27 39 71 54 97 20
33 24 47 14 47 -7 0 -28 -28 -46 -62 -17 -35 -50 -97 -72 -138 -23 -41 -82
-151 -132 -245 -51 -93 -101 -188 -114 -210 -12 -22 -53 -98 -91 -170 -39 -71
-89 -166 -113 -210 -23 -44 -54 -100 -68 -125 -52 -90 -113 -205 -119 -224 -5
-16 -13 -17 -72 -11 -76 8 -107 21 -93 38 5 7 44 80 87 162 43 83 94 182 115
220 21 39 70 133 110 210 129 248 272 520 280 530 6 8 107 201 118 228 2 4 -2
7 -10 7 -7 0 -52 -75 -99 -168 -528 -1030 -616 -1197 -638 -1200 -23 -4 -476
75 -506 88 -11 5 -47 11 -80 14 -33 3 -107 15 -165 27 -119 24 -207 40 -362
65 -88 14 -105 20 -101 33 3 11 2 12 -4 4 -6 -9 -22 -10 -50 -5 -40 7 -41 8
-26 27 11 14 17 16 20 8 6 -18 23 -16 23 1 0 8 14 17 30 21 17 4 30 11 30 16
0 5 23 9 50 9 28 0 50 5 50 10 0 6 -9 10 -20 10 -11 0 -20 5 -20 10 0 6 7 10
15 10 23 0 61 41 69 74 6 24 9 26 23 14 14 -11 16 -10 11 7 -4 18 0 21 25 23
34 3 49 12 30 19 -26 9 -12 23 22 23 19 0 35 5 35 10 0 6 7 10 15 10 8 0 15 9
15 20 0 11 5 20 10 20 6 0 10 26 10 58 0 46 4 60 20 72 11 8 20 22 20 32 0 15
9 18 50 18 49 0 50 0 50 31 0 29 -2 31 -30 27 -18 -3 -30 0 -30 7 0 17 22 35
42 35 11 0 18 7 18 20 0 11 5 20 10 20 6 0 10 14 10 30 0 28 2 30 40 30 38 0
54 13 28 23 -7 2 -10 8 -6 12 4 4 14 2 23 -5 10 -8 15 -9 15 -1 0 6 9 11 20
11 13 0 20 7 20 20 0 13 7 20 20 20 16 0 20 -7 20 -30 0 -23 4 -30 20 -30 16
0 20 7 20 36 0 25 7 43 23 57 15 13 18 21 9 24 -18 7 -15 23 6 23 10 0 24 9
32 20 8 11 20 20 28 20 18 0 42 25 42 44 0 12 10 16 40 16 22 0 40 5 40 10 0
6 14 10 30 10 23 0 30 4 30 20 0 13 7 20 18 20 10 0 24 9 32 20 8 11 23 20 34
20 18 0 56 35 56 52 0 4 -1228 8 -2730 8 l-2730 0 0 -3650z m5160 3466 c0 -3
-4 -8 -10 -11 -5 -3 -10 -1 -10 4 0 6 5 11 10 11 6 0 10 -2 10 -4z m1560 -764
c0 -9 -165 -152 -175 -152 -3 0 1 12 9 27 7 15 47 51 87 79 84 59 79 57 79 46z
m28 -113 c-10 -87 -20 -120 -33 -107 -3 2 4 49 15 103 11 53 20 100 20 103 0
3 2 3 5 1 2 -3 -1 -48 -7 -100z m66 92 c7 -10 -36 -110 -47 -111 -4 0 -5 10
-3 23 3 12 8 39 11 60 6 35 26 50 39 28z m-103 -106 l-18 -90 -84 4 c-46 2
-86 5 -89 8 -3 2 4 11 15 19 19 14 126 101 168 137 11 9 22 16 23 14 2 -1 -5
-43 -15 -92z m-2678 -22 c-7 -2 -21 -2 -30 0 -10 3 -4 5 12 5 17 0 24 -2 18
-5z m2497 -8 c0 -8 -7 -15 -16 -15 -14 0 -14 3 -4 15 7 8 14 15 16 15 2 0 4
-7 4 -15z m-74 -31 c-15 -14 -31 -22 -35 -19 -7 8 36 45 53 45 6 0 -2 -12 -18
-26z m-2273 9 c-7 -2 -21 -2 -30 0 -10 3 -4 5 12 5 17 0 24 -2 18 -5z m-81
-40 c12 -11 22 -13 28 -7 7 7 27 7 59 0 48 -9 49 -10 25 -22 -14 -7 -31 -11
-39 -8 -10 4 -12 -1 -9 -18 2 -13 2 -17 -2 -10 -3 6 -12 12 -19 12 -7 0 -25
14 -39 31 -15 18 -31 27 -37 23 -8 -4 -9 -3 -5 4 10 16 16 15 38 -5z m2348
-12 c0 -5 -7 -12 -16 -15 -24 -9 -28 -7 -14 9 14 17 30 20 30 6z m232 -6 c5
-5 1 -34 -17 -112 -6 -25 -32 -29 -131 -17 -46 6 -54 10 -78 47 l-26 41 22 23
c20 21 30 23 123 23 56 0 104 -2 107 -5z m-2341 -61 c24 -31 50 -62 56 -69 10
-10 10 -21 1 -47 -14 -43 -13 -42 -35 -24 -67 55 -138 106 -150 106 -28 0 -4
37 40 59 15 8 27 18 27 23 0 20 20 4 61 -48z m2373 41 c-4 -8 -8 -15 -10 -15
-2 0 -4 7 -4 15 0 8 4 15 10 15 5 0 7 -7 4 -15z m-2869 -15 c7 -24 -2 -43 -17
-34 -7 4 -6 9 3 14 10 7 10 11 0 24 -8 10 -9 16 -3 16 6 0 13 -9 17 -20z m574
10 c21 0 23 -3 16 -37 -4 -21 -9 -40 -11 -42 -5 -5 -73 71 -74 83 0 4 10 6 23
2 12 -3 33 -6 46 -6z m1836 -115 c-124 -119 -132 -124 -172 -125 -24 0 -43 4
-43 8 0 10 71 77 125 118 37 29 203 124 215 124 3 -1 -53 -57 -125 -125z m145
108 c0 -5 -13 -17 -28 -27 l-27 -19 24 26 c26 28 31 32 31 20z m-1673 -177
c39 -25 40 -31 8 -52 -23 -15 -32 -15 -117 1 l-93 18 -43 54 c-44 56 -45 60
-21 125 l11 26 111 -76 c62 -41 126 -85 144 -96z m-127 155 c25 -5 106 -18
180 -30 137 -22 152 -27 134 -39 -6 -4 -38 -28 -71 -54 -34 -27 -64 -48 -68
-48 -7 0 -70 46 -147 108 -23 18 -54 40 -70 48 -48 25 -37 29 42 15z m1870
-66 c0 -3 -32 -5 -71 -5 -78 0 -80 5 -17 50 l40 29 24 -35 c13 -19 24 -37 24
-39z m-2353 57 c14 -9 5 -26 -18 -34 -12 -5 -15 -1 -11 18 5 25 10 28 29 16z
m-136 -32 c10 0 19 -5 19 -11 0 -6 -10 -9 -22 -7 -16 2 -24 10 -25 28 -1 14 0
18 3 8 3 -10 14 -18 25 -18z m-214 -6 c-3 -3 -12 -4 -19 -1 -8 3 -5 6 6 6 11
1 17 -2 13 -5z m40 -10 c-3 -3 -12 -4 -19 -1 -8 3 -5 6 6 6 11 1 17 -2 13 -5z
m258 -4 c-3 -5 -13 -10 -21 -10 -8 0 -14 5 -14 10 0 6 9 10 21 10 11 0 17 -4
14 -10z m131 0 c8 0 23 -9 34 -20 10 -10 37 -28 59 -39 60 -31 57 -40 -7 -25
-31 8 -79 16 -107 19 -27 3 -51 10 -53 15 -2 5 -11 7 -20 4 -9 -3 -1 8 18 25
19 17 41 29 48 26 8 -3 20 -5 28 -5z m1059 -50 c99 -17 185 -33 192 -35 13 -4
6 -27 -38 -122 -10 -24 -19 -48 -19 -54 0 -6 -7 -8 -16 -5 -18 7 -344 246
-344 252 0 2 10 2 23 -1 12 -3 103 -19 202 -35z m-1242 23 c-7 -2 -19 -2 -25
0 -7 3 -2 5 12 5 14 0 19 -2 13 -5z m1018 -35 c19 -23 58 -71 88 -105 29 -35
51 -66 48 -69 -2 -3 -45 2 -93 10 -49 9 -92 16 -96 16 -5 0 -8 15 -8 34 0 58
13 156 20 156 4 0 23 -19 41 -42z m1325 -85 c-2 -2 -48 -2 -102 -1 l-98 3 74
62 75 62 28 -61 c15 -33 26 -63 23 -65z m142 106 c9 -12 28 -33 40 -48 20 -22
19 -20 -2 10 -30 41 -34 64 -10 55 9 -3 40 -6 69 -6 l53 0 -14 -37 c-24 -61
-41 -78 -59 -63 -12 10 -15 10 -15 -4 0 -14 -14 -16 -90 -16 l-90 0 -25 56
c-14 31 -25 60 -25 65 0 5 34 9 75 9 65 0 78 -3 93 -21z m-1572 -50 c-26 -94
-28 -99 -42 -99 -7 0 -15 4 -18 9 -3 4 -23 7 -44 5 -50 -3 -73 10 -44 25 15 8
23 7 32 -4 7 -8 17 -15 23 -15 5 0 2 9 -8 20 -18 20 -18 21 3 36 12 8 40 30
64 48 24 18 44 32 46 31 1 -1 -4 -26 -12 -56z m-1131 41 c3 -5 1 -10 -4 -10
-6 0 -11 5 -11 10 0 6 2 10 4 10 3 0 8 -4 11 -10z m-30 -20 c-3 -5 -17 -10
-31 -10 -13 0 -24 5 -24 10 0 6 14 10 31 10 17 0 28 -4 24 -10z m692 -12 c31
-29 29 -42 -4 -33 -36 8 -45 18 -37 38 8 22 13 21 41 -5z m498 -52 c-7 -62
-16 -79 -30 -56 -6 10 26 132 33 125 2 -2 1 -33 -3 -69z m-821 27 l39 -5 -23
-18 c-44 -33 -192 -6 -157 29 11 11 30 10 141 -6z m1355 -2 c11 -7 7 -21 -19
-72 -34 -69 -70 -114 -70 -89 0 8 6 26 13 40 7 14 22 49 32 78 20 55 22 57 44
43z m94 -1 c19 0 20 -1 5 -16 -12 -13 -20 -14 -37 -5 -24 13 -29 36 -5 27 9
-3 25 -6 37 -6z m-357 -76 c57 -43 103 -78 102 -80 -2 -1 -26 2 -53 7 -49 9
-56 14 -117 89 -12 14 -28 33 -36 43 -29 33 1 16 104 -59z m434 46 c8 -15 7
-25 -3 -40 -14 -20 -14 -20 -42 2 l-28 22 23 18 c28 23 37 23 50 -2z m-1423 4
c-3 -4 4 -15 16 -25 l22 -19 -25 5 c-14 3 -35 7 -47 8 -28 2 -28 6 -5 23 17
13 51 20 39 8z m178 -14 c22 -5 56 -12 75 -16 34 -6 80 -38 80 -56 0 -9 -34
-6 -130 14 -103 20 -125 28 -142 52 l-17 23 47 -4 c26 -2 65 -8 87 -13z m1135
-5 c0 -2 -18 -18 -40 -35 l-40 -32 10 27 c22 58 30 66 50 55 11 -6 20 -12 20
-15z m255 10 c131 -22 135 -24 135 -43 0 -27 -71 -165 -80 -156 -64 68 -168
199 -164 205 7 11 3 12 109 -6z m-2019 -8 c13 -12 -25 -13 -47 -1 -24 14 -24
14 9 10 19 -3 36 -7 38 -9z m-80 -19 c5 -7 2 -9 -9 -5 -11 4 -14 2 -11 -7 3
-8 -4 -15 -20 -18 l-25 -5 22 23 c25 27 33 29 43 12z m1924 -49 c0 -5 -9 -28
-21 -50 -17 -35 -24 -40 -47 -35 -15 3 -48 8 -74 12 -27 3 -48 10 -48 14 0 4
30 31 66 59 l66 51 29 -21 c16 -11 29 -25 29 -30z m80 24 c12 -16 38 -46 59
-68 42 -46 64 -77 40 -59 -12 10 -137 103 -147 110 -7 5 9 44 18 44 5 0 18
-12 30 -27z m360 17 c-20 -13 -53 -13 -45 0 3 6 18 10 33 10 21 0 24 -2 12
-10z m236 1 l71 -1 37 -83 c50 -114 48 -117 -75 -117 -111 0 -96 -8 -224 112
l-50 48 30 24 c25 20 39 24 85 21 30 -1 87 -3 126 -4z m-2463 -27 c4 -23 3
-24 -10 -11 -9 8 -12 20 -9 26 10 16 13 14 19 -15z m188 16 c18 0 28 -4 24
-10 -9 -15 -49 -12 -71 6 -17 14 -17 15 -1 10 10 -3 32 -6 48 -6z m600 0 c34
0 38 -15 8 -31 -18 -9 -25 -7 -48 16 -20 21 -22 26 -8 21 10 -3 32 -6 48 -6z
m1934 1 c3 -5 -3 -24 -13 -43 -11 -18 -32 -55 -47 -82 l-28 -49 -32 71 c-56
120 -59 112 34 112 44 0 82 -4 86 -9z m-1745 -30 l34 -7 -32 -22 c-30 -22 -35
-22 -92 -11 -33 6 -60 15 -60 19 0 4 10 15 23 23 22 16 37 15 127 -2z m-1034
-9 c-10 -2 -22 0 -28 6 -6 6 0 7 19 4 21 -5 23 -7 9 -10z m194 -10 c0 -10 -53
-53 -58 -47 -3 3 0 11 6 17 7 7 12 23 12 35 0 21 3 22 20 13 11 -6 20 -14 20
-18z m315 12 c11 -3 30 -18 42 -34 l23 -28 -21 -66 c-12 -36 -26 -66 -33 -66
-7 0 -40 21 -75 48 -35 26 -88 62 -119 81 l-54 33 28 25 c27 22 35 23 109 18
44 -3 89 -8 100 -11z m2737 -225 c76 -46 138 -87 138 -90 0 -3 -29 -18 -65
-33 l-64 -28 -121 49 -120 49 -53 85 c-76 121 -117 196 -110 202 3 3 62 -29
132 -72 69 -43 188 -116 263 -162z m-3462 223 c0 -4 -13 -13 -30 -19 -16 -6
-30 -8 -30 -4 0 4 12 12 28 18 15 6 28 11 30 12 1 1 2 -3 2 -7z m2450 1 c0
-10 -32 -43 -42 -43 -15 0 -8 29 10 39 20 12 32 14 32 4z m673 -124 c43 -73
75 -134 73 -137 -8 -7 -199 69 -219 87 -17 17 -16 21 20 99 21 44 40 81 43 82
3 0 41 -59 83 -131z m-1773 73 c0 -11 -8 -13 -37 -7 -50 9 -52 13 -23 35 23
17 26 17 42 3 10 -9 18 -23 18 -31z m803 -4 c39 -28 74 -53 76 -55 2 -2 2 -5
0 -7 -7 -6 -188 29 -188 36 -1 10 31 78 36 78 2 0 36 -23 76 -52z m-1998 32
c3 -5 18 -10 32 -10 38 0 25 -6 -27 -13 -30 -4 -38 -3 -25 3 18 8 17 9 -8 9
-31 1 -28 21 3 21 10 0 22 -4 25 -10z m1225 0 c0 -5 -2 -10 -4 -10 -3 0 -8 5
-11 10 -3 6 -1 10 4 10 6 0 11 -4 11 -10z m157 -16 c87 -14 106 -21 129 -45
15 -16 25 -31 23 -34 -5 -5 -277 43 -291 51 -4 3 -8 16 -8 30 0 20 4 24 23 20
12 -3 68 -13 124 -22z m-552 -3 c39 -6 99 -16 134 -22 l63 -12 -33 -27 c-61
-53 -71 -55 -123 -25 -25 15 -49 31 -52 36 -3 5 -28 21 -55 34 -52 27 -64 41
-26 32 12 -3 54 -11 92 -16z m1564 -42 c39 -34 71 -64 71 -65 0 -2 -49 -4
-110 -4 l-110 0 0 37 c0 38 39 93 66 93 7 0 44 -28 83 -61z m-1677 28 c141
-86 178 -110 178 -117 0 -14 -72 -62 -79 -54 -22 25 -138 171 -145 182 -11 18
4 15 46 -11z m1518 15 c0 -5 -7 -17 -15 -28 -15 -19 -20 -8 -9 20 6 17 24 22
24 8z m-1819 -73 c20 -16 41 -29 45 -29 5 0 23 -12 39 -26 17 -14 25 -23 19
-20 -6 3 -60 12 -120 21 -122 18 -161 31 -167 57 -4 13 7 24 36 41 l42 23 35
-19 c19 -11 51 -32 71 -48z m1208 35 c6 -5 -30 -44 -40 -44 -4 0 -17 14 -29
30 l-22 31 44 -7 c23 -4 45 -8 47 -10z m-1529 -14 c0 -13 -7 -20 -19 -20 -25
0 -35 27 -13 33 30 8 32 7 32 -13z m-67 3 c-7 -2 -21 -2 -30 0 -10 3 -4 5 12
5 17 0 24 -2 18 -5z m739 -127 c9 -17 8 -18 -23 -11 -19 4 -53 11 -77 15 -23
4 -45 9 -47 12 -3 3 2 31 12 63 l18 57 53 -58 c29 -33 58 -68 64 -78z m421
117 c23 -13 -18 -188 -45 -188 -18 0 -198 108 -195 117 1 4 27 25 57 47 54 40
57 41 115 35 33 -4 63 -8 68 -11z m471 -19 c-15 -22 -44 -34 -44 -18 0 11 45
51 52 47 4 -2 1 -15 -8 -29z m95 17 c12 -8 11 -13 -10 -30 -40 -34 -83 -24
-68 17 9 23 50 30 78 13z m467 -37 c-3 -8 -10 -14 -16 -14 -14 0 -13 33 3 49
10 10 13 9 15 -4 2 -9 1 -23 -2 -31z m-2011 16 c3 -5 -1 -10 -10 -10 -9 0 -13
5 -10 10 3 6 8 10 10 10 2 0 7 -4 10 -10z m1084 -37 c65 -67 154 -173 149
-178 -6 -6 -252 36 -261 45 -5 4 3 30 17 58 14 28 26 67 26 87 0 19 5 35 11
35 6 0 32 -21 58 -47z m327 -16 c8 -8 -31 -80 -55 -101 -19 -17 -23 -17 -38
-4 -10 8 -66 45 -125 82 -60 37 -108 71 -108 75 0 7 318 -43 326 -52z m204 26
c0 -8 -13 -13 -30 -13 -36 0 -38 12 -7 33 22 15 37 7 37 -20z m166 11 c106
-16 111 -18 123 -46 7 -16 12 -31 10 -33 -4 -3 -221 32 -223 37 0 2 -12 15
-25 31 -29 33 -31 32 115 11z m-1990 -3 c-4 -5 13 -7 36 -5 41 4 41 4 -17 -15
-32 -11 -62 -17 -65 -14 -3 3 1 8 8 10 20 8 14 25 -7 18 -11 -3 -22 -1 -26 5
-4 6 9 10 35 10 23 0 39 -4 36 -9z m-259 -48 c-3 -10 -5 -4 -5 12 0 17 2 24 5
18 2 -7 2 -21 0 -30z m2108 27 c3 -5 1 -10 -4 -10 -6 0 -11 5 -11 10 0 6 2 10
4 10 3 0 8 -4 11 -10z m369 -15 c3 -9 0 -15 -9 -15 -8 0 -15 7 -15 15 0 8 4
15 9 15 5 0 11 -7 15 -15z m169 5 l112 0 60 -54 c39 -36 57 -58 50 -64 -16
-16 -319 39 -344 62 -25 23 -29 71 -5 62 9 -3 66 -6 127 -6z m-2108 -10 c11 0
146 -21 300 -45 154 -25 352 -56 440 -70 373 -58 490 -77 498 -82 4 -2 4 -10
-1 -16 -5 -7 -40 -70 -77 -142 -37 -71 -90 -172 -117 -223 -28 -51 -72 -134
-98 -185 l-48 -92 -50 -1 c-28 0 -57 -5 -64 -11 -10 -8 -49 -10 -77 -4 -2 1 2
7 8 15 14 17 0 29 -24 20 -13 -5 -16 -2 -13 17 2 19 -1 23 -15 21 -14 -2 -18
2 -15 20 2 15 -2 23 -12 24 -8 1 -19 2 -24 3 -5 0 -3 7 3 15 14 17 0 29 -24
20 -13 -5 -15 -2 -9 21 6 25 5 27 -15 20 -19 -6 -22 -4 -19 17 2 19 -1 23 -19
21 -24 -3 -31 11 -13 22 17 11 0 26 -21 20 -17 -6 -19 -3 -13 21 6 24 5 27
-15 21 -18 -4 -21 -2 -19 16 2 16 -2 22 -15 21 -13 -2 -17 4 -15 20 2 13 -3
22 -12 22 -32 3 -35 5 -21 13 19 12 3 33 -20 26 -17 -6 -19 -3 -13 21 6 24 5
26 -14 22 -17 -5 -21 -2 -19 15 1 15 -5 22 -23 27 -17 4 -21 8 -12 14 16 10 4
29 -15 22 -10 -4 -13 0 -11 17 2 16 -3 23 -18 25 -17 2 -21 8 -16 24 4 18 2
20 -16 16 -17 -5 -21 -2 -19 16 1 15 -3 21 -16 20 -13 -2 -16 3 -12 17 4 13 0
22 -12 27 -10 4 -18 16 -18 27 0 13 -6 19 -16 17 -10 -1 -15 5 -15 20 1 15 -5
23 -15 22 -9 -1 -15 7 -15 20 1 15 -5 21 -21 21 -11 0 -25 3 -29 8 -15 15 -21
6 -21 -33 0 -33 3 -40 19 -40 16 0 17 -3 8 -20 -9 -18 -8 -20 17 -20 21 0 24
-3 15 -12 -18 -18 -14 -28 12 -28 19 0 23 -4 19 -20 -4 -15 0 -20 15 -20 15 0
19 -5 15 -20 -4 -16 0 -20 22 -20 23 0 25 -2 15 -15 -16 -19 -5 -34 21 -28 19
5 20 4 10 -16 -12 -21 -9 -25 21 -22 12 2 15 -4 11 -19 -4 -16 -1 -20 17 -20
17 0 20 -4 15 -20 -5 -16 -2 -20 15 -20 17 0 20 -4 15 -20 -5 -16 -2 -20 20
-20 22 0 25 -3 19 -26 -6 -23 -4 -25 15 -19 18 5 21 3 19 -17 -2 -17 1 -22 15
-20 14 2 18 -2 15 -20 -2 -18 1 -23 18 -21 18 2 20 -2 16 -23 -4 -23 -2 -25
18 -19 19 6 21 4 15 -14 -5 -17 -2 -21 14 -21 16 0 20 -6 18 -22 -2 -19 2 -22
21 -20 24 4 29 -7 10 -26 -9 -9 -6 -12 15 -12 22 0 26 -4 24 -22 -2 -19 2 -22
21 -20 21 3 22 1 12 -17 -10 -19 -8 -21 15 -21 22 0 25 -3 20 -20 -5 -16 -2
-20 15 -20 17 0 20 -4 15 -20 -5 -17 -2 -20 20 -20 22 0 25 -3 20 -20 -5 -16
-2 -20 15 -20 17 0 20 -4 15 -20 -5 -16 -2 -20 14 -20 14 0 21 -6 21 -20 0
-13 -7 -20 -20 -20 -31 0 -24 -27 8 -33 28 -6 29 -7 22 -49 -4 -24 -11 -52
-15 -63 -41 -110 -58 -151 -66 -160 -5 -5 -9 -16 -9 -24 0 -14 -22 -73 -133
-357 l-51 -132 -45 51 c-25 28 -56 63 -68 77 -12 14 -43 50 -70 81 -26 31 -73
84 -103 119 -30 35 -62 71 -70 80 -8 9 -28 34 -45 55 -16 22 -37 47 -46 55 -9
8 -47 51 -85 95 -37 44 -73 85 -79 92 -5 6 -21 26 -35 44 -14 18 -30 37 -36
43 -33 34 -35 54 -19 203 9 80 20 169 26 197 5 28 12 83 15 121 5 70 32 243
39 256 3 3 7 48 10 100 2 52 8 111 11 132 l6 39 42 -6 c22 -3 50 -6 61 -6z
m1390 1 c5 -10 -35 -44 -43 -37 -6 7 18 46 28 46 5 0 11 -4 15 -9z m1055 -1
c0 -21 -41 -90 -53 -90 -10 0 -86 56 -121 91 -6 5 26 9 82 9 57 0 92 -4 92
-10z m-2643 -16 c3 -9 -3 -23 -16 -35 -11 -11 -21 -26 -21 -34 0 -8 -4 -15 -8
-15 -5 0 -15 -11 -22 -25 -7 -14 -17 -25 -22 -25 -5 0 -6 5 -2 12 5 8 2 9 -10
5 -25 -10 -98 3 -93 17 2 6 14 11 26 10 25 -1 28 21 4 36 -16 10 -16 11 -1 6
9 -2 19 1 21 8 3 7 26 19 51 26 26 7 49 17 52 21 9 15 34 10 41 -7z m927 -35
c36 -23 66 -42 66 -43 0 -1 -24 1 -52 5 -29 4 -77 11 -105 15 -58 7 -64 16
-30 45 32 27 48 24 121 -22z m433 -10 c43 -28 79 -54 81 -58 1 -5 -8 -15 -22
-24 -23 -16 -25 -15 -73 41 -64 76 -77 92 -70 92 4 0 41 -23 84 -51z m300 -26
c-51 -125 -45 -120 -108 -78 -30 20 -55 38 -57 40 -2 2 27 28 64 59 51 42 76
56 100 56 l32 0 -31 -77z m1298 -15 c17 -6 39 -24 50 -42 36 -60 55 -96 51
-96 -10 0 -169 40 -199 49 -22 8 -49 34 -89 88 -31 42 -55 80 -52 84 2 4 50
-11 107 -33 56 -22 116 -45 132 -50z m-1098 13 c29 -31 52 -59 53 -63 0 -5
-26 11 -58 35 -125 92 -133 100 -79 91 22 -4 48 -23 84 -63z m253 47 c0 -13
-23 -5 -28 10 -2 7 2 10 12 6 9 -3 16 -11 16 -16z m690 -132 c0 -4 -151 34
-158 39 -2 2 8 26 23 54 l26 52 54 -71 c30 -39 55 -72 55 -74z m-827 113 l67
-13 0 -78 c0 -56 -4 -78 -12 -78 -12 0 -168 173 -168 185 0 3 10 3 23 1 12 -3
52 -10 90 -17z m-105 -96 c72 -54 129 -99 128 -100 -5 -6 -351 50 -359 57 -5
4 -2 18 6 31 8 13 26 46 41 72 17 30 33 47 41 43 7 -2 72 -49 143 -103z
m-2301 65 c-3 -7 -5 -2 -5 12 0 14 2 19 5 13 2 -7 2 -19 0 -25z m2520 -26 c6
-24 6 -45 0 -60 -17 -38 -27 -24 -27 38 0 68 13 78 27 22z m29 23 c6 -14 -3
-52 -10 -44 -2 2 -6 16 -10 32 -7 29 10 39 20 12z m-2120 -51 c-3 -8 -15 -14
-27 -14 -21 0 -21 0 2 21 13 11 17 17 9 13 -13 -7 -13 -6 0 11 14 17 15 17 18
1 2 -9 1 -24 -2 -32z m2233 -8 c-2 -2 -19 -7 -36 -11 -29 -6 -33 -4 -33 14 0
12 6 21 15 21 8 0 15 6 15 12 0 7 10 3 22 -9 12 -13 20 -24 17 -27z m105 34
c29 0 15 -9 -25 -15 -23 -4 -41 0 -54 10 -19 16 -18 16 20 11 22 -3 49 -6 59
-6z m131 -62 c36 -28 65 -53 65 -54 0 -19 -19 -35 -46 -40 -29 -5 -41 -1 -83
31 l-50 38 20 39 c11 21 22 38 25 38 2 0 34 -23 69 -52z m647 20 c48 -18 88
-35 88 -38 0 -3 -26 -15 -58 -28 l-57 -22 -15 21 c-35 51 -61 99 -53 99 4 0
47 -14 95 -32z m-1565 -24 c-8 -8 -77 10 -77 21 0 22 12 23 46 3 19 -11 33
-22 31 -24z m813 38 c0 -5 -6 -17 -14 -27 -12 -16 -16 -17 -30 -6 -23 19 -20
29 12 34 15 2 28 5 30 6 1 0 2 -3 2 -7z m150 -9 c24 -11 40 -24 40 -35 0 -27
-15 -29 -45 -5 -71 56 -71 56 -53 57 10 0 36 -8 58 -17z m-2822 0 c-9 -2 -19
-12 -21 -21 -3 -12 -5 -10 -6 6 -1 17 4 22 22 21 15 -1 17 -3 5 -6z m1772 -3
c0 -5 -7 -10 -16 -10 -8 0 -12 5 -9 10 3 6 10 10 16 10 5 0 9 -4 9 -10z m1968
-55 c23 -36 37 -65 33 -65 -5 0 -42 14 -82 30 -139 58 -132 49 -64 76 33 13
63 23 66 23 3 1 24 -28 47 -64z m-3612 44 c4 -7 21 -9 40 -6 19 3 34 2 34 -2
0 -10 -57 -91 -81 -113 -16 -16 -17 -14 -24 42 -4 33 -12 63 -17 66 -6 4 -5
10 3 15 19 12 37 11 45 -2z m2473 -23 l32 -33 -21 -37 c-12 -20 -26 -36 -30
-36 -19 0 -111 83 -108 97 2 13 48 34 89 42 3 1 20 -14 38 -33z m461 8 c36 -9
69 -20 74 -25 11 -9 -72 -161 -85 -154 -5 4 -9 10 -9 16 0 5 -20 50 -45 100
-42 85 -43 91 -23 85 13 -3 52 -14 88 -22z m-74 -80 c25 -53 44 -97 42 -99 -4
-3 -162 16 -166 20 -4 4 69 175 75 175 2 0 25 -43 49 -96z m913 0 l63 -38 -21
-18 c-21 -17 -24 -16 -74 3 -29 11 -53 21 -53 22 -11 14 -74 117 -74 121 0 5
17 -5 159 -90z m-3619 67 c-8 -6 -19 -7 -25 -3 -5 3 -3 -2 5 -12 12 -16 12
-20 0 -30 -8 -6 -24 -27 -34 -46 -27 -49 -41 -60 -70 -60 -18 0 -24 4 -20 15
4 8 10 12 15 9 5 -3 9 3 9 14 0 10 9 27 20 37 11 10 20 24 20 31 0 7 9 19 20
27 11 8 17 17 13 20 -3 4 9 7 28 7 25 0 30 -3 19 -9z m1616 -18 c11 -4 2 -27
-37 -102 -28 -53 -54 -100 -60 -105 -5 -6 -9 -17 -9 -25 0 -19 21 14 80 127
24 45 49 86 54 91 6 5 93 -5 200 -22 184 -29 189 -31 206 -59 16 -26 18 -73
24 -466 3 -240 8 -480 11 -532 l5 -95 -77 -60 c-42 -33 -85 -69 -97 -80 -12
-11 -50 -45 -86 -75 -36 -30 -67 -57 -70 -60 -3 -3 -32 -27 -65 -55 -33 -27
-71 -60 -84 -73 -14 -12 -46 -37 -73 -54 -26 -17 -48 -35 -48 -39 0 -4 -39
-41 -87 -81 -49 -40 -90 -75 -93 -78 -3 -3 -25 -21 -50 -42 -25 -20 -65 -55
-90 -77 -35 -32 -53 -40 -82 -41 -44 0 -43 -1 -162 140 -84 101 -87 106 -81
144 3 22 12 51 20 65 18 34 38 81 66 161 12 36 30 83 40 105 9 22 27 68 39
103 12 34 26 65 31 68 13 8 49 94 49 118 0 28 49 155 72 185 10 13 18 32 18
42 0 11 7 19 16 19 11 0 13 6 9 19 -4 14 4 26 34 48 22 15 41 34 41 41 0 6 7
12 15 12 8 0 15 7 15 15 0 8 9 15 20 15 11 0 20 7 20 15 0 9 9 15 21 15 15 0
19 5 15 16 -4 12 -1 14 14 9 16 -5 20 -2 20 15 0 16 4 20 15 16 10 -3 19 1 23
12 4 9 14 17 22 17 8 0 14 7 14 16 -1 11 5 15 17 12 14 -4 19 0 19 15 0 15 5
19 20 15 14 -4 20 0 20 11 0 9 7 16 15 16 8 0 15 6 15 14 0 7 9 16 21 19 12 3
18 10 14 16 -3 7 2 11 14 11 12 0 21 7 21 15 0 8 7 15 15 15 8 0 15 7 15 15 0
8 9 15 20 15 11 0 20 7 20 15 0 8 7 15 15 15 8 0 15 7 15 15 0 8 6 12 14 9 8
-3 16 3 19 16 3 11 9 19 14 18 12 -4 53 34 53 50 0 7 8 12 18 10 9 -2 16 3 14
10 -1 6 5 12 13 12 9 0 18 7 21 15 4 8 12 15 20 15 8 0 14 7 14 15 0 8 7 15
15 15 10 0 14 10 13 35 -1 33 -3 35 -36 35 -26 0 -33 -3 -28 -15 4 -10 -1 -15
-14 -15 -11 0 -20 -7 -20 -15 0 -8 -7 -15 -15 -15 -8 0 -15 -7 -15 -15 0 -9
-6 -12 -15 -9 -10 4 -15 0 -15 -15 0 -14 -5 -19 -16 -14 -10 4 -17 -1 -21 -16
-3 -11 -9 -18 -14 -15 -5 3 -12 -2 -15 -10 -3 -9 -12 -16 -20 -16 -8 0 -14 -7
-14 -15 0 -8 -9 -15 -20 -15 -11 0 -20 -7 -20 -15 0 -8 -7 -15 -15 -15 -8 0
-15 -7 -15 -15 0 -8 -7 -15 -15 -15 -8 0 -15 -7 -15 -15 0 -8 -9 -15 -20 -15
-11 0 -20 -7 -20 -15 0 -8 -7 -15 -15 -15 -8 0 -15 -7 -15 -15 0 -10 -7 -15
-17 -13 -12 2 -18 -3 -17 -14 1 -11 -5 -18 -17 -18 -10 0 -19 -7 -19 -15 0 -9
-9 -15 -21 -15 -15 0 -19 -5 -15 -16 4 -12 1 -14 -14 -9 -16 5 -20 2 -20 -14
0 -12 -3 -20 -7 -20 -21 3 -33 -2 -33 -15 0 -8 -8 -13 -17 -12 -12 1 -17 -5
-15 -16 2 -12 -2 -16 -13 -12 -21 9 -20 12 28 100 102 187 137 254 130 254 -5
0 -20 -22 -34 -48 -126 -235 -185 -338 -201 -354 -10 -10 -18 -23 -18 -29 0
-6 -15 -1 -34 10 -18 12 -43 21 -55 21 -11 0 -21 3 -21 7 0 5 158 315 250 488
21 39 49 94 64 124 l28 53 59 -6 c33 -4 67 -10 75 -13z m552 -31 c3 -28 0 -32
-22 -32 -29 0 -31 7 -14 45 15 33 32 27 36 -13z m1133 24 l33 -14 -43 -22
c-39 -20 -48 -20 -94 -9 l-51 12 49 23 c61 27 64 28 106 10z m-1191 0 c0 -3
-4 -8 -10 -11 -5 -3 -10 -1 -10 4 0 6 5 11 10 11 6 0 10 -2 10 -4z m978 -43
c61 -15 112 -30 112 -33 0 -4 -18 -15 -40 -25 -46 -21 -45 -21 -165 54 -38 24
-59 41 -45 37 14 -3 76 -18 138 -33z m-691 5 c13 -12 23 -25 23 -29 0 -8 -79
-23 -86 -16 -5 5 28 67 35 67 3 0 15 -10 28 -22z m548 -56 l57 -73 -79 7
c-130 12 -126 8 -85 82 19 35 38 62 42 60 4 -2 34 -36 65 -76z m-715 53 c38
-20 39 -38 3 -29 -27 7 -43 20 -43 37 0 10 7 9 40 -8z m764 -21 c33 -20 72
-44 85 -52 l24 -15 -34 -18 c-19 -10 -37 -18 -40 -19 -6 0 -82 95 -102 127
-13 20 1 16 67 -23z m390 2 c14 -19 26 -37 26 -39 0 -3 -32 5 -72 16 l-72 21
40 18 c21 10 42 18 45 18 4 0 18 -15 33 -34z m113 -16 c12 0 56 -50 49 -57 -2
-2 -28 3 -57 11 -39 12 -62 26 -81 50 -16 19 -28 37 -28 40 0 3 24 -6 53 -19
28 -14 57 -25 64 -25z m-3491 -23 c-7 -52 -8 -53 -36 -49 -26 4 -28 6 -18 28
6 13 15 21 21 17 6 -3 7 -1 3 5 -7 12 23 66 32 58 2 -3 1 -29 -2 -59z m2524
23 c0 -5 -4 -10 -9 -10 -6 0 -13 5 -16 10 -3 6 1 10 9 10 9 0 16 -4 16 -10z
m-2783 -62 c-2 -13 -4 -3 -4 22 0 25 2 35 4 23 2 -13 2 -33 0 -45z m2423 42
c0 -25 -8 -25 -40 0 l-25 20 33 0 c25 0 32 -4 32 -20z m258 -39 c2 -6 17 -18
32 -26 l29 -15 -19 -52 c-30 -89 -27 -85 -73 -83 -80 3 -83 4 -101 41 -19 41
-15 54 9 30 31 -30 86 -69 91 -64 3 3 -25 28 -61 54 -47 35 -74 63 -91 96 -13
26 -24 51 -24 56 0 13 203 -23 208 -37z m15 38 c-8 -8 -16 -8 -30 0 -16 9 -14
10 12 11 21 0 26 -3 18 -11z m880 -8 c5 -5 -1 -23 -15 -45 -29 -45 -60 -47
-125 -7 l-46 29 39 21 c30 16 50 20 88 16 27 -2 54 -9 59 -14z m400 -17 c11
-14 17 -27 15 -29 -2 -2 -21 4 -43 14 -37 16 -38 18 -20 29 27 15 27 15 48
-14z m-3996 -16 c-3 -7 -5 -2 -5 12 0 14 2 19 5 13 2 -7 2 -19 0 -25z m2421
15 c14 -12 22 -34 25 -66 5 -55 -2 -52 -44 20 -16 26 -29 43 -29 37 0 -5 13
-31 29 -56 16 -25 32 -55 36 -67 6 -21 4 -22 -32 -19 l-38 3 -3 68 c-4 90 14
116 56 80z m1442 7 c8 -5 11 -12 8 -16 -10 -9 -38 3 -38 16 0 12 10 13 30 0z
m-1372 -51 c-5 -4 -3 -9 6 -12 13 -5 72 -117 64 -122 -2 -1 -22 2 -46 7 l-42
9 1 87 c1 77 3 83 14 62 9 -16 10 -27 3 -31z m1277 -29 c4 -6 5 -13 4 -14 -5
-4 -183 15 -188 20 -2 2 7 19 19 38 l21 36 69 -35 c38 -19 72 -39 75 -45z
m-55 60 c8 -5 11 -10 5 -10 -5 0 -17 5 -25 10 -8 5 -10 10 -5 10 6 0 17 -5 25
-10z m355 -13 c36 -25 38 -39 5 -30 -17 5 -58 53 -45 53 3 0 22 -11 40 -23z
m-640 -8 c20 -12 35 -23 33 -24 -2 -2 -32 0 -68 4 l-65 6 30 17 c17 10 31 17
32 18 1 0 18 -10 38 -21z m480 11 c-3 -5 -13 -10 -21 -10 -8 0 -12 5 -9 10 3
6 13 10 21 10 8 0 12 -4 9 -10z m-81 -17 c35 -5 37 -8 22 -19 -14 -10 -24 -10
-54 3 -46 19 -68 38 -32 29 14 -3 43 -9 64 -13z m121 7 c3 -5 -1 -10 -10 -10
-9 0 -13 5 -10 10 3 6 8 10 10 10 2 0 7 -4 10 -10z m-3998 -22 c-3 -8 -6 -5
-6 6 -1 11 2 17 5 13 3 -3 4 -12 1 -19z m4086 -9 c5 -3 -3 -4 -17 -2 -14 3
-31 12 -37 20 -11 12 -8 12 17 2 16 -7 33 -16 37 -20z m-3899 6 c-4 -8 -8 -15
-10 -15 -2 0 -4 7 -4 15 0 8 4 15 10 15 5 0 7 -7 4 -15z m-55 -69 c2 -45 -6
-27 -12 29 -4 34 -3 42 3 25 4 -14 8 -38 9 -54z m181 60 c0 -20 -29 -48 -42
-40 -7 5 -8 2 -3 -5 7 -12 -39 -71 -56 -71 -17 0 -19 66 -2 97 16 29 22 33 60
33 31 0 43 -4 43 -14z m3544 -17 c-6 -11 -24 -2 -24 11 0 5 7 7 15 4 8 -4 12
-10 9 -15z m135 15 c43 -9 41 -34 -4 -34 -39 0 -87 19 -79 31 6 11 39 11 83 3z
m188 0 c-3 -3 -12 -4 -19 -1 -8 3 -5 6 6 6 11 1 17 -2 13 -5z m-117 -34 c0 -5
-4 -10 -10 -10 -5 0 -10 5 -10 10 0 6 5 10 10 10 6 0 10 -4 10 -10z m100 -10
c13 -9 13 -10 0 -10 -8 0 -22 5 -30 10 -13 9 -13 10 0 10 8 0 22 -5 30 -10z
m-4070 -40 c0 -5 -2 -10 -4 -10 -3 0 -8 5 -11 10 -3 6 -1 10 4 10 6 0 11 -4
11 -10z m208 -29 c3 -42 -6 -55 -31 -45 -17 6 -12 40 11 67 8 9 16 17 16 17 1
0 2 -18 4 -39z m2170 4 c2 -2 -2 -13 -9 -26 -11 -22 -12 -22 -25 -4 -22 30
-18 48 9 39 12 -3 23 -8 25 -9z m-2313 -5 c3 -5 1 -10 -4 -10 -6 0 -11 5 -11
10 0 6 2 10 4 10 3 0 8 -4 11 -10z m2344 -77 l0 -88 -23 50 c-24 50 -24 50 -5
88 11 20 21 37 23 37 2 0 4 -39 5 -87z m102 67 c13 0 28 -22 54 -76 19 -42 35
-88 35 -101 0 -25 0 -25 -72 -18 -40 4 -76 10 -79 14 -4 3 -10 48 -13 100 l-7
94 32 -7 c17 -3 40 -6 50 -6z m-172 -72 c-15 -28 -19 -22 -19 25 1 41 1 41 14
17 10 -17 11 -30 5 -42z m312 43 c4 -3 -3 -30 -14 -60 l-21 -55 -27 60 c-15
32 -28 62 -28 67 -1 8 80 -2 90 -12z m-2606 -1 c3 -5 1 -10 -4 -10 -6 0 -11 5
-11 10 0 6 2 10 4 10 3 0 8 -4 11 -10z m29 -50 c7 0 12 -23 14 -67 2 -38 5
-76 8 -86 5 -15 1 -18 -17 -15 -26 3 -36 30 -38 96 -1 31 3 42 14 42 8 0 15 5
15 10 0 6 -6 10 -14 10 -8 0 -18 5 -22 12 -5 8 -2 9 10 5 10 -4 23 -7 30 -7z
m2318 -75 c17 -42 32 -174 18 -159 -4 5 -20 32 -35 59 -15 28 -31 54 -36 60
-12 13 -11 72 2 97 10 19 11 19 23 1 7 -10 19 -36 28 -58z m-2202 34 c0 -17
-5 -40 -12 -52 -11 -21 -11 -21 -19 -2 -4 11 -8 35 -8 53 -1 26 3 32 19 32 16
0 20 -7 20 -31z m2212 -206 c6 -7 7 -24 4 -38 -5 -21 -12 -25 -41 -25 l-35 0
0 98 0 97 31 -60 c17 -33 36 -66 41 -72z m165 111 l23 -4 -21 -53 c-11 -28
-22 -53 -23 -55 -4 -3 -86 114 -86 122 0 6 56 1 107 -10z m-69 -80 c35 -53 39
-65 28 -79 -11 -15 -16 -8 -45 56 -56 125 -54 128 17 23z m-2358 45 c0 -6 -4
-7 -10 -4 -5 3 -10 11 -10 16 0 6 5 7 10 4 6 -3 10 -11 10 -16z m2350 -125 c0
-2 -8 -4 -19 -4 -21 0 -31 26 -30 80 l0 35 25 -54 c13 -29 24 -55 24 -57z
m-2390 70 c0 -23 -2 -24 -15 -10 -8 8 -15 19 -15 25 0 6 7 11 15 11 9 0 15
-10 15 -26z m50 -26 c0 -9 -4 -20 -10 -23 -6 -4 -10 9 -10 32 0 28 3 34 10 23
5 -8 10 -23 10 -32z m1170 -33 c-24 -63 -61 -117 -45 -64 6 17 3 20 -17 17
-19 -2 -23 2 -23 22 0 38 13 50 56 50 37 0 38 -1 29 -25z m118 -14 c16 -23 15
-23 -6 -17 -21 7 -28 -1 -23 -28 1 -5 -7 -6 -19 -3 -16 4 -20 0 -20 -19 0 -21
-3 -22 -25 -14 -14 5 -25 7 -25 3 0 -3 -3 -4 -6 0 -3 3 3 16 15 28 12 13 27
36 33 51 16 35 53 35 76 -1z m-1328 -29 c0 -21 -2 -24 -10 -12 -13 20 -13 53
0 45 6 -3 10 -18 10 -33z m2380 8 c12 -8 11 -10 -7 -10 -13 0 -23 5 -23 10 0
13 11 13 30 0z m-110 -19 c0 -18 -18 -21 -30 -6 -10 13 -9 15 9 15 11 0 21 -4
21 -9z m38 -62 l-3 -54 -21 36 c-19 32 -20 38 -7 63 21 40 35 20 31 -45z
m-2271 24 c-3 -10 -5 -4 -5 12 0 17 2 24 5 18 2 -7 2 -21 0 -30z m2203 -15 c0
-9 -4 -20 -10 -23 -6 -4 -10 9 -10 32 0 28 3 34 10 23 5 -8 10 -23 10 -32z
m148 10 c-10 -28 -12 -30 -19 -12 -13 32 -10 44 10 44 18 0 19 -3 9 -32z m-36
-91 c-9 -18 -11 -10 -10 43 l0 65 11 -43 c7 -29 7 -49 -1 -65z m-2258 11 c4
-40 9 -93 13 -116 l6 -44 -32 16 c-20 11 -31 24 -31 39 0 38 24 177 31 177 3
0 9 -33 13 -72z m2204 -7 c22 -39 23 -41 4 -41 -78 0 -99 24 -66 76 19 29 30
23 62 -35z m-1054 26 c29 -21 18 -65 -68 -277 -15 -36 -35 -87 -46 -115 -10
-27 -42 -106 -70 -175 -62 -149 -100 -247 -107 -278 -8 -34 -22 -36 -44 -8
-11 14 -27 33 -35 40 -19 20 -18 35 12 113 14 37 43 118 65 178 22 61 58 147
80 193 22 46 37 87 34 92 -6 10 63 187 76 196 5 3 9 16 9 30 0 21 4 24 38 24
21 0 46 -6 56 -13z m-1024 -114 c0 -37 -14 -27 -32 23 l-16 46 24 -23 c13 -12
24 -33 24 -46z m2098 21 c4 -2 -22 -101 -35 -134 -4 -12 -52 116 -53 143 0 6
79 -1 88 -9z m-2174 -67 c4 -19 3 -26 -4 -22 -5 3 -10 18 -10 32 0 32 5 28 14
-10z m202 -84 c-2 -2 -25 4 -52 13 -53 18 -75 37 -68 60 2 8 6 21 9 30 4 13
18 3 59 -42 30 -33 53 -60 52 -61z m-146 62 c0 -5 -5 -3 -10 5 -5 8 -10 20
-10 25 0 6 5 3 10 -5 5 -8 10 -19 10 -25z m2060 -67 c0 -5 -7 -8 -15 -8 -12 0
-15 13 -14 58 l1 57 14 -50 c7 -27 14 -53 14 -57z m-2150 52 c0 -5 -2 -10 -4
-10 -3 0 -8 5 -11 10 -3 6 -1 10 4 10 6 0 11 -4 11 -10z m53 -45 c16 -45 12
-56 -11 -33 -11 11 -18 78 -8 78 2 0 11 -20 19 -45z m145 -11 c32 -9 62 -21
69 -26 11 -9 63 -95 63 -105 0 -7 -177 117 -190 133 -16 18 -11 18 58 -2z
m-55 -71 c14 -32 28 -69 32 -83 7 -25 7 -25 -13 -5 -21 21 -66 145 -53 145 5
0 20 -26 34 -57z m2007 38 c0 -5 -7 -14 -15 -21 -13 -10 -15 -9 -15 9 0 12 6
21 15 21 8 0 15 -4 15 -9z m-1838 -119 c31 -20 48 -43 69 -90 16 -35 29 -68
29 -73 0 -5 -41 13 -92 39 l-92 49 -21 59 c-11 32 -23 64 -26 69 -31 53 -18
48 133 -53z m-292 21 c0 -13 -4 -23 -10 -23 -5 0 -10 8 -10 18 0 9 -3 28 -6
42 -5 24 -5 24 10 6 9 -11 16 -30 16 -43z m66 -4 c15 -32 34 -92 31 -96 -4 -4
-67 107 -67 119 0 17 25 2 36 -23z m-2349 -11 c-3 -7 -5 -2 -5 12 0 14 2 19 5
13 2 -7 2 -19 0 -25z m2644 -15 c13 -16 12 -17 -3 -4 -10 7 -18 15 -18 17 0 8
8 3 21 -13z m1667 -13 c-7 -11 -19 -22 -28 -25 -8 -4 -4 5 9 19 29 31 36 33
19 6z m42 0 c0 -5 -5 -10 -11 -10 -5 0 -7 5 -4 10 3 6 8 10 11 10 2 0 4 -4 4
-10z m-2063 -32 c-3 -8 -6 -5 -6 6 -1 11 2 17 5 13 3 -3 4 -12 1 -19z m64 -28
l24 -35 -25 16 c-14 9 -27 27 -28 40 -4 27 -5 27 29 -21z m357 -38 c-7 -10
-14 -19 -15 -21 -3 -4 -33 64 -33 74 0 4 14 -3 30 -15 26 -19 29 -24 18 -38z
m1590 31 c-18 -16 -35 -31 -36 -36 -2 -4 -13 -12 -25 -19 -15 -7 -9 4 18 35
22 25 48 46 58 46 14 1 10 -6 -15 -26z m-80 -34 c-39 -46 -94 -87 -104 -76 -5
5 74 88 106 110 43 30 42 19 -2 -34z m-1700 -58 c65 -75 64 -81 -6 -32 -58 41
-83 77 -82 120 1 12 6 9 20 -9 11 -14 42 -49 68 -79z m-105 -94 c4 -56 9 -131
13 -167 l6 -65 -30 47 c-36 55 -69 193 -71 301 l-1 37 39 -25 38 -26 6 -102z
m236 86 c2 -1 -1 -15 -8 -30 l-12 -26 -49 54 c-27 30 -50 57 -50 62 0 5 98
-44 119 -60z m178 -38 c23 -27 41 -50 39 -52 -6 -6 -148 81 -153 95 -3 7 0 25
7 40 l12 27 26 -30 c15 -17 46 -53 69 -80z m1460 15 c-20 -59 -22 -61 -28 -34
-13 58 -10 73 19 88 15 8 28 13 29 12 1 -1 -8 -30 -20 -66z m2173 61 c0 -15
-68 -53 -87 -49 -13 3 -6 11 27 31 48 29 60 32 60 18z m-2220 -101 c6 -27 9
-53 6 -58 -3 -5 -38 -21 -78 -37 -40 -15 -78 -32 -84 -37 -13 -9 -38 15 -32
32 4 12 160 150 169 150 4 0 12 -22 19 -50z m-1710 -1 l59 -40 -35 -52 c-20
-29 -37 -54 -39 -56 -3 -2 -17 41 -31 99 -2 8 -8 32 -13 53 -5 20 -7 37 -5 37
2 0 31 -18 64 -41z m186 4 c9 -21 35 -76 58 -123 22 -47 43 -89 45 -94 4 -9
-78 83 -152 170 -28 33 -28 34 -10 59 25 34 39 31 59 -12z m1401 9 c-21 -23
-95 -48 -76 -26 14 17 58 41 78 43 11 1 10 -3 -2 -17z m-1281 -52 c35 -22 68
-40 73 -40 6 0 22 -16 37 -35 l26 -35 -22 -55 c-22 -54 -24 -56 -54 -49 -31 7
-55 29 -56 51 0 7 -20 52 -45 101 -25 49 -45 91 -45 95 0 15 26 5 86 -33z
m1458 -14 c-9 -26 -18 -45 -20 -43 -2 2 3 25 12 51 9 26 18 45 20 43 2 -2 -3
-25 -12 -51z m-320 0 c-3 -8 -13 -17 -22 -21 -13 -5 -13 -2 3 15 21 24 26 25
19 6z m-1350 -31 c-4 -8 -10 -13 -14 -10 -4 3 -11 -5 -14 -18 -8 -28 -43 -74
-51 -66 -6 7 28 71 53 101 17 20 34 15 26 -7z m1370 -13 c-17 -15 -55 -47 -85
-71 -49 -40 -48 -38 17 28 40 39 78 71 85 71 8 -1 0 -13 -17 -28z m-1261 -86
c27 -31 6 -38 -67 -22 -60 12 -96 26 -70 26 5 0 10 9 11 19 1 11 11 31 23 44
l22 25 32 -36 c17 -20 39 -46 49 -56z m1492 57 c-7 -21 -27 -74 -43 -117 l-30
-80 -36 78 c-20 44 -36 82 -36 86 0 8 128 68 147 69 9 1 9 -8 -2 -36z m-1740
-160 l-8 -28 -8 35 c-4 19 -10 67 -14 105 l-5 70 21 -77 c14 -51 19 -87 14
-105z m1559 162 c6 -15 -4 -22 -68 -49 l-39 -16 44 40 c49 44 55 46 63 25z
m-249 -120 c-81 -86 -114 -115 -132 -115 -22 0 -20 6 36 68 75 85 163 157 195
161 4 1 -40 -51 -99 -114z m343 -109 c-3 -19 -11 -21 -85 -24 l-83 -3 -16 41
c-9 22 -25 57 -35 78 -11 20 -16 38 -12 40 5 1 39 15 78 31 l69 28 43 -85 c24
-47 43 -95 41 -106z m-1131 107 c9 -13 14 -25 12 -27 -7 -7 -59 6 -59 15 0 5
8 6 18 3 16 -5 16 -4 1 7 -14 10 -15 17 -5 38 10 22 11 22 15 6 2 -11 10 -30
18 -42z m57 -26 c-7 -12 -13 -6 -27 26 l-18 42 27 -26 c19 -19 24 -31 18 -42z
m-349 21 c87 -19 91 -22 132 -71 25 -30 39 -55 35 -61 -5 -6 -15 -31 -22 -55
l-14 -43 -45 6 c-114 16 -202 33 -210 42 -4 5 -16 41 -25 79 -33 144 -33 144
149 103z m1198 -49 c15 -34 27 -64 27 -68 0 -3 -45 -5 -100 -3 -55 2 -100 6
-99 10 0 8 131 121 139 121 3 1 17 -27 33 -60z m-1474 -44 c0 -25 -2 -27 -8
-10 -4 11 -11 34 -15 50 -7 29 -7 29 8 10 8 -11 15 -33 15 -50z m476 55 c8
-13 -5 -13 -25 0 -13 8 -13 10 2 10 9 0 20 -4 23 -10z m131 -33 c2 -2 -2 -12
-9 -21 -13 -17 -15 -17 -55 3 -23 12 -42 28 -42 35 0 12 8 12 51 1 28 -8 53
-15 55 -18z m-521 -54 c8 -24 10 -43 4 -43 -5 0 -9 5 -9 12 0 6 -7 19 -16 29
-12 13 -14 26 -9 46 5 18 9 23 12 13 3 -8 11 -34 18 -57z m585 48 c0 -11 -26
-22 -34 -14 -12 12 -5 23 14 23 11 0 20 -4 20 -9z m-92 -57 c2 -1 0 -14 -4
-29 l-7 -26 -38 41 c-22 23 -39 45 -39 50 0 5 19 -1 43 -13 23 -12 43 -23 45
-23z m114 6 c-5 -32 -32 -42 -32 -12 0 18 18 42 30 42 4 0 5 -13 2 -30z m79
-42 c27 -29 49 -56 49 -60 0 -4 -24 5 -52 21 -45 23 -53 33 -56 59 -2 18 0 32
4 32 3 0 28 -24 55 -52z m-717 17 c3 -8 1 -15 -4 -15 -6 0 -10 7 -10 15 0 8 2
15 4 15 2 0 6 -7 10 -15z m1390 8 l77 -6 18 -41 c10 -23 29 -63 42 -91 13 -27
26 -54 28 -59 2 -5 -12 -6 -30 -3 -19 4 -88 7 -155 8 l-121 1 -53 70 -54 70
35 29 c38 31 68 35 213 22z m-942 -37 c26 -32 26 -35 9 -50 -29 -27 -87 -16
-77 15 30 83 30 83 68 35z m1178 27 c0 -14 -55 -153 -61 -153 -6 0 -69 137
-69 151 0 5 29 9 65 9 36 0 65 -3 65 -7z m-570 -11 c0 -5 -12 -14 -27 -21
l-28 -12 25 21 c29 22 30 23 30 12z m-452 -26 c10 -22 8 -46 -5 -86 -3 -11
-15 -3 -43 29 l-38 44 21 18 c30 25 52 23 65 -5z m492 -1 c-7 -9 -15 -13 -17
-11 -7 7 7 26 19 26 6 0 6 -6 -2 -15z m-1064 -9 c1 0 10 -19 21 -41 15 -30 22
-70 27 -165 4 -69 9 -141 12 -160 l6 -35 -31 47 c-34 54 -56 131 -66 233 -3
39 -9 85 -12 104 -5 31 -4 33 18 26 13 -4 25 -8 25 -9z m689 -34 c85 -45 93
-67 44 -118 -18 -19 -37 -34 -41 -34 -8 0 -68 123 -72 147 -1 7 -5 16 -9 19
-9 10 -9 24 1 23 4 0 39 -17 77 -37z m338 16 c-7 -17 -113 -113 -113 -104 0
10 101 116 111 116 5 0 6 -6 2 -12z m150 -95 c7 -10 -4 -13 -50 -13 l-60 0 -7
41 c-5 34 -3 43 16 58 21 18 22 17 56 -28 19 -25 39 -52 45 -58z m-990 82 c40
-9 82 -18 95 -21 12 -2 22 -9 22 -15 0 -6 -4 -7 -10 -4 -5 3 -7 0 -4 -8 11
-28 -36 -117 -87 -167 -28 -28 -53 -50 -54 -50 -2 0 -26 77 -31 103 -2 11 -10
41 -18 66 -8 25 -18 61 -21 79 -8 39 0 40 108 17z m736 -42 c-53 -58 -58 -61
-51 -28 3 16 19 36 41 50 55 36 58 30 10 -22z m-549 -2 c0 -4 -18 -25 -40 -46
-40 -39 -48 -41 -31 -7 5 9 14 29 21 43 9 19 18 25 31 22 10 -3 19 -8 19 -12z
m281 -108 c5 -13 7 -23 6 -23 -2 0 -19 20 -40 44 -31 38 -36 49 -30 77 l6 32
24 -54 c14 -30 29 -64 34 -76z m389 81 c0 -21 -5 -24 -35 -24 -19 0 -35 2 -35
5 0 11 55 53 62 48 5 -2 8 -15 8 -29z m540 9 c-15 -53 -52 -144 -56 -141 -2 3
7 33 20 69 13 35 27 72 30 82 9 28 15 19 6 -10z m-1150 5 c-1 -26 -46 -103
-58 -100 -6 1 -11 -2 -9 -6 3 -12 -114 -132 -124 -127 -4 3 -1 25 7 49 17 50
88 131 106 120 7 -5 8 -3 3 5 -4 8 5 23 26 41 37 32 49 36 49 18z m50 -3 c0
-3 -9 -15 -20 -27 -20 -21 -20 -21 -20 -2 0 12 3 24 7 27 8 8 33 9 33 2z
m-1380 -15 c0 -5 -18 -10 -40 -10 -22 0 -40 5 -40 10 0 6 18 10 40 10 22 0 40
-4 40 -10z m1401 -51 c-5 -24 -15 -71 -21 -104 -7 -33 -16 -64 -21 -69 -4 -5
-28 -5 -53 -2 l-45 7 19 42 c11 23 20 49 20 57 0 9 16 31 36 50 19 19 43 43
52 52 22 23 24 19 13 -33z m-2141 -39 l0 -80 35 0 35 0 0 -80 0 -80 -35 0 -35
0 0 -80 0 -80 -80 0 -80 0 0 66 c0 85 9 94 94 94 l66 0 0 80 0 80 -80 0 -80 0
0 65 c0 39 5 72 13 80 8 10 34 14 80 15 l67 0 0 -80z m2186 38 c-3 -13 -13
-58 -23 -100 -9 -43 -20 -78 -25 -78 -12 0 -10 24 6 89 8 31 17 68 20 84 4 15
11 27 17 27 7 0 9 -9 5 -22z m294 5 c-1 -5 -21 -30 -45 -56 -51 -55 -81 -66
-91 -34 -9 30 63 97 106 97 16 0 30 -3 30 -7z m121 -30 c13 -21 42 -64 66 -95
24 -31 43 -61 43 -67 0 -12 -20 -15 -20 -3 0 4 -19 27 -41 52 -22 25 -46 54
-53 65 -13 19 -30 85 -22 85 3 0 15 -17 27 -37z m90 -23 c3 -30 5 -56 4 -58
-2 -3 -61 76 -79 106 -6 10 1 13 30 10 l39 -3 6 -55z m248 -76 c56 -75 105
-142 108 -150 7 -19 -52 -19 -132 1 -33 8 -72 14 -87 15 -20 0 -35 12 -65 52
-33 45 -39 63 -48 135 l-11 83 66 0 66 0 103 -136z m94 125 c83 -1 117 -5 115
-13 -12 -45 -84 -236 -89 -236 -4 0 -22 22 -40 48 -19 27 -60 83 -91 125 -32
42 -58 79 -58 83 0 3 10 4 23 1 12 -4 75 -7 140 -8z m-798 -41 c14 -12 25 -26
25 -31 0 -6 -19 -29 -42 -51 -40 -39 -41 -40 -35 -13 4 15 10 47 14 72 3 25 7
45 9 45 2 0 15 -10 29 -22z m305 -18 c15 -15 23 -47 35 -150 8 -72 18 -149 21
-173 l6 -42 -29 35 c-15 19 -58 71 -95 115 -86 102 -87 118 -15 185 28 27 53
49 55 50 1 0 11 -9 22 -20z m-801 -90 c28 -92 31 -143 9 -148 -13 -3 -17 9
-22 65 -4 37 -9 87 -12 111 -3 23 -3 42 -1 42 3 0 15 -32 26 -70z m249 12 c-8
-20 -19 -32 -30 -32 -10 0 -18 3 -18 6 0 7 53 64 57 60 1 -1 -3 -17 -9 -34z
m-135 0 c-3 -13 -13 -22 -25 -22 -19 0 -19 1 3 24 27 28 30 28 22 -2z m447
-10 c0 -40 -4 -44 -137 -155 -23 -19 -50 -42 -59 -51 -9 -9 -18 -15 -20 -14
-5 6 24 110 33 118 38 36 169 140 175 140 5 0 8 -17 8 -38z m424 -127 c43 -49
104 -119 135 -153 31 -35 57 -67 59 -71 3 -8 -58 -1 -169 19 -30 5 -67 10 -82
10 -37 0 -43 19 -57 170 -6 69 -14 139 -17 155 l-5 30 29 -35 c15 -19 64 -75
107 -125z m-897 60 c-15 -32 -27 -32 -27 0 0 18 5 25 19 25 17 0 18 -3 8 -25z
m133 1 c0 -7 -11 -34 -24 -62 -12 -27 -26 -61 -30 -76 -5 -23 -12 -28 -36 -28
-24 0 -30 5 -32 23 -2 30 -4 39 -13 60 -9 21 49 93 80 99 29 5 55 -2 55 -16z
m130 -6 c0 -11 -3 -20 -7 -20 -5 0 -39 -29 -78 -65 -38 -36 -73 -65 -77 -65
-12 0 -9 13 7 34 8 11 15 25 15 32 0 6 9 32 20 58 21 46 21 46 70 46 43 0 50
-3 50 -20z m319 -22 c59 -68 251 -298 251 -301 0 -2 -114 9 -252 24 -139 16
-285 31 -325 35 l-72 7 66 61 c36 33 73 65 82 70 9 5 18 12 21 16 3 4 37 35
75 69 81 72 105 75 154 19z m345 -7 c-6 -6 -24 19 -24 34 1 6 7 1 15 -9 8 -11
12 -22 9 -25z m-1049 -89 c-5 -12 -11 -5 -21 28 -20 65 -16 82 8 32 11 -24 16
-51 13 -60z m1395 58 c0 -5 -5 -10 -11 -10 -5 0 -7 5 -4 10 3 6 8 10 11 10 2
0 4 -4 4 -10z m-280 -47 c19 -25 29 -43 23 -40 -19 12 -75 87 -66 87 5 0 25
-21 43 -47z m-751 10 c-4 -16 -11 -40 -14 -55 -5 -26 -8 -28 -58 -28 l-52 1
60 54 c33 30 63 55 67 55 3 0 2 -12 -3 -27z m854 17 c127 -19 119 -13 99 -63
-10 -23 -24 -61 -32 -84 -7 -24 -16 -43 -19 -43 -6 0 -132 175 -139 192 -5 10
4 10 91 -2z m-1147 -47 c-10 -10 -19 5 -10 18 6 11 8 11 12 0 2 -7 1 -15 -2
-18z m-26 -23 c0 -5 -5 -10 -11 -10 -5 0 -7 5 -4 10 3 6 8 10 11 10 2 0 4 -4
4 -10z m50 -6 c0 -8 -5 -12 -10 -9 -6 4 -8 11 -5 16 9 14 15 11 15 -7z m-83
-46 c-3 -8 -6 -5 -6 6 -1 11 2 17 5 13 3 -3 4 -12 1 -19z m30 -10 c-3 -8 -6
-5 -6 6 -1 11 2 17 5 13 3 -3 4 -12 1 -19z m246 12 l32 -1 -28 -24 c-34 -30
-63 -32 -72 -5 -8 25 3 43 22 36 8 -3 29 -6 46 -6z m-203 -31 c0 -10 -7 -19
-15 -19 -16 0 -19 9 -9 34 8 20 24 11 24 -15z m1239 -13 c-6 -21 -13 -36 -16
-33 -3 3 0 22 7 42 16 47 23 40 9 -9z m-1249 -30 c0 -7 -7 -19 -15 -26 -12
-10 -15 -9 -15 7 0 11 3 23 7 26 11 12 23 8 23 -7z m1040 -17 c19 -5 52 -9 73
-9 33 0 37 -3 37 -25 0 -30 -12 -31 -141 -14 -70 9 -88 15 -106 37 -13 14 -23
27 -23 30 0 6 118 -8 160 -19z m-2820 1 c0 -5 9 -10 20 -10 13 0 20 -7 20 -20
0 -11 5 -20 10 -20 6 0 10 -9 10 -20 0 -17 7 -20 50 -20 l50 0 0 -80 0 -80
-80 0 c-47 0 -80 4 -80 10 0 6 -13 10 -30 10 l-30 0 0 70 c0 63 -2 70 -20 70
-31 0 -26 47 8 76 27 24 72 33 72 14z m2155 -21 c75 -7 132 -15 128 -19 -5 -4
-50 -15 -102 -25 l-93 -18 -64 34 c-68 36 -83 55 -34 46 16 -4 91 -12 165 -18z
m-285 -23 c0 -2 -7 -9 -15 -16 -13 -11 -14 -10 -9 4 5 14 24 23 24 12z m79
-25 c17 -16 31 -31 31 -33 0 -7 -141 -31 -146 -25 -4 4 74 85 82 87 1 0 16
-13 33 -29z m573 -29 c42 -26 76 -47 75 -48 -1 -2 -66 -14 -144 -29 l-142 -26
-73 37 c-40 20 -75 40 -78 44 -3 4 -14 10 -25 12 -22 5 -8 9 140 46 109 27
152 20 247 -36z m-483 3 c-6 -6 -19 1 -37 19 l-27 27 37 -18 c23 -11 33 -22
27 -28z m638 19 c18 -3 37 -13 43 -24 11 -20 12 -20 -64 -35 -11 -2 -32 5 -47
16 -15 10 -30 19 -33 19 -3 0 -20 9 -38 20 l-33 21 70 -6 c39 -3 85 -8 102
-11z m162 -20 c7 -6 -68 -16 -78 -9 -25 15 -9 25 32 19 23 -4 44 -8 46 -10z
m-2359 -74 l0 -81 -77 3 -78 3 -3 58 c-2 31 -7 57 -12 57 -6 0 -10 9 -10 20 0
19 7 20 90 20 l90 0 0 -80z m1698 15 l87 -46 -74 7 c-64 6 -80 11 -108 37 -69
63 -24 64 95 2z m720 25 c-7 -11 -18 -20 -24 -20 -7 0 -14 -7 -18 -15 -3 -8
-12 -15 -19 -15 -15 0 -53 37 -46 44 7 7 73 24 97 25 20 1 21 -1 10 -19z
m-854 -26 c15 -14 27 -26 25 -28 -2 -2 -50 2 -106 8 -103 12 -145 25 -82 27
19 0 43 4 54 9 38 16 79 10 109 -16z m734 -14 c13 -17 21 -34 17 -40 -6 -10
-115 38 -115 51 0 7 26 13 65 17 6 0 20 -12 33 -28z m125 -8 c-4 -16 -13 -22
-32 -22 l-26 0 30 24 c35 28 36 28 28 -2z m-160 -48 c12 -7 15 -14 8 -18 -10
-7 -167 5 -306 23 l-60 7 40 8 c22 5 78 16 125 26 l85 17 45 -25 c25 -14 53
-31 63 -38z m273 -115 l7 -106 -31 -5 c-25 -3 -31 0 -35 16 -3 12 -12 49 -22
84 -13 52 -14 66 -4 79 14 16 29 41 51 82 l13 24 7 -34 c5 -19 11 -82 14 -140z
m-1113 116 c11 -11 16 -12 19 -3 4 10 26 10 104 0 54 -7 101 -17 102 -22 2 -6
9 -10 15 -10 7 0 64 -51 126 -114 l114 -115 -159 40 c-221 54 -227 56 -249 78
-85 82 -125 130 -119 145 8 20 28 21 47 1z m397 -30 c30 -4 89 -8 130 -11 41
-3 98 -9 125 -15 28 -5 67 -10 88 -11 21 -1 34 -4 30 -8 -8 -7 -125 -95 -207
-156 l-42 -31 -99 96 c-55 53 -111 108 -124 123 l-24 27 34 -4 c19 -2 59 -7
89 -10z m495 5 c3 -5 -1 -10 -10 -10 -9 0 -13 5 -10 10 3 6 8 10 10 10 2 0 7
-4 10 -10z m-912 -65 c26 -26 46 -50 43 -52 -9 -9 -146 30 -146 42 0 7 5 26
11 43 13 38 23 35 92 -33z m927 7 c-1 -9 -55 -56 -139 -122 -51 -40 -72 -50
-105 -51 -22 -1 -53 -2 -68 -3 -34 -2 -35 4 -4 24 30 19 148 107 187 140 25
21 39 24 80 22 27 -2 49 -7 49 -10z m38 -48 c28 -6 30 -10 34 -54 l3 -49 -75
-6 c-41 -3 -97 -8 -125 -10 -50 -5 -50 -5 -25 13 13 9 39 29 56 45 17 15 36
27 41 27 5 0 16 9 26 20 19 22 21 23 65 14z m-933 -38 c57 -16 67 -24 172
-134 62 -64 111 -121 110 -126 -10 -30 -38 -30 -151 -1 -64 16 -120 31 -124
34 -9 6 -132 243 -132 254 0 5 23 0 125 -27z m-90 -107 c50 -102 53 -111 32
-106 -12 3 -48 11 -80 18 -32 7 -56 18 -55 24 2 5 12 47 23 93 10 45 20 82 22
82 2 0 28 -50 58 -111z m1114 51 c1 -13 0 -13 -9 0 -5 8 -9 24 -9 35 l0 20 9
-20 c5 -11 9 -27 9 -35z m-581 -50 c37 0 25 -23 -35 -65 -108 -76 -91 -79
-196 31 -50 53 -93 100 -95 104 -2 4 66 -10 150 -31 84 -21 163 -39 176 -39z
m547 -105 l6 -62 -101 -12 c-177 -20 -177 -20 -244 48 l-58 59 28 18 c16 10
37 25 47 33 14 12 58 19 160 26 l142 10 6 -29 c4 -15 10 -56 14 -91z m59 73
c17 -49 17 -55 2 -83 -9 -16 -16 -28 -17 -25 0 3 -2 14 -4 25 -10 67 -14 135
-7 135 5 0 17 -24 26 -52z m56 29 c0 -13 -6 -31 -13 -42 -13 -16 -15 -14 -24
24 -11 40 -10 41 13 41 18 0 24 -5 24 -23z m-480 -24 c-14 -9 -28 -21 -32 -27
-4 -6 -15 -3 -28 9 -26 23 -12 35 45 35 l39 0 -24 -17z m-95 -20 l25 -28 -38
-35 c-21 -19 -60 -50 -86 -69 l-48 -34 -29 31 -29 31 25 18 c14 10 53 39 86
66 33 26 62 47 64 47 2 0 16 -12 30 -27z m658 -250 c5 -40 3 -53 -7 -53 -31 0
-62 217 -40 283 7 21 31 -98 47 -230z m-78 205 c-4 -45 -5 -46 -15 -20 -10 22
-4 52 10 52 4 0 6 -15 5 -32z m-447 -106 c-93 -10 -238 -16 -238 -10 0 5 3 8
8 8 4 0 28 17 54 38 97 78 82 76 144 18 51 -46 54 -51 32 -54z m-750 72 c23
-8 48 -14 55 -14 13 0 92 -149 83 -158 -3 -2 -18 0 -33 6 -15 6 -61 18 -101
28 -63 16 -75 22 -92 51 -24 42 -34 78 -26 99 7 17 34 14 114 -12z m1172 -25
c0 -12 -7 -19 -20 -19 -23 0 -24 4 -9 31 12 23 29 16 29 -12z m-955 -29 c44
-12 81 -23 83 -24 1 -2 -15 -15 -35 -29 -21 -14 -50 -35 -64 -46 l-25 -20 -38
76 c-30 62 -34 75 -19 70 10 -3 54 -15 98 -27z m200 -10 c18 -20 18 -20 -16
-14 -42 8 -47 13 -29 24 21 13 25 13 45 -10z m-525 -41 c0 -4 -8 -5 -19 -2
-13 3 -17 11 -13 25 5 20 6 20 19 3 7 -11 13 -22 13 -26z m1179 19 c-22 -42
-91 -148 -96 -148 -7 0 -143 133 -143 141 0 4 51 11 113 16 61 6 118 11 125
11 10 2 10 -3 1 -20z m125 -9 c3 -17 6 -56 6 -85 0 -47 -3 -54 -20 -54 -13 0
-22 9 -26 28 -3 15 -10 40 -15 56 -5 16 -9 42 -9 57 0 25 4 29 29 29 24 0 29
-5 35 -31z m-800 -3 l49 -13 -49 -36 c-27 -20 -60 -45 -74 -56 -89 -71 -237
-184 -252 -192 -14 -8 -20 -3 -33 28 -9 20 -14 42 -11 49 3 7 42 38 87 70 45
33 112 83 148 111 36 29 71 53 76 52 6 0 32 -6 59 -13z m483 -78 c46 -46 83
-86 83 -90 0 -7 -105 -175 -120 -191 -7 -8 -149 132 -288 283 -59 64 -57 66
58 69 41 1 77 4 79 7 2 2 27 4 55 4 50 0 52 -1 133 -82z m221 0 c10 -65 7 -68
-59 -68 l-39 0 40 62 c22 33 40 66 41 72 1 19 8 -7 17 -66z m-1171 -17 c14
-31 32 -70 41 -88 9 -18 14 -34 12 -36 -67 -54 -80 -59 -126 -52 -25 3 -47 12
-50 19 -4 11 25 162 41 212 2 7 15 9 30 6 22 -4 33 -17 52 -61z m579 31 c79
-77 389 -405 392 -414 3 -5 -16 -7 -45 -3 -26 3 -136 12 -243 20 -329 26 -553
45 -597 51 l-42 5 33 30 c19 16 37 29 41 29 4 0 19 11 33 25 36 33 375 294
383 295 4 0 24 -17 45 -38z m-458 -11 c46 -11 85 -21 88 -23 4 -5 -118 -93
-129 -93 -5 0 -22 30 -37 68 -19 43 -25 67 -17 67 7 0 49 -9 95 -19z m1229
-103 c-3 -7 -5 -2 -5 12 0 14 2 19 5 13 2 -7 2 -19 0 -25z m-78 -50 l-1 -73
-13 55 c-18 72 -18 90 0 90 12 0 15 -14 14 -72z m95 -88 c27 -88 47 -162 45
-165 -3 -2 -29 20 -58 49 l-53 54 -6 111 c-7 163 11 151 72 -49z m-179 106 c4
-25 5 -50 3 -56 -2 -6 -28 14 -58 45 l-54 55 51 0 52 0 6 -44z m-54 -43 c38
-37 69 -74 69 -84 0 -19 -23 -23 -184 -35 l-90 -7 21 34 c11 19 38 62 58 97
21 34 42 62 48 62 5 0 40 -30 78 -67z m-1053 -16 c7 -18 12 -36 12 -39 0 -5
-80 11 -89 18 -4 3 51 53 59 54 4 0 11 -15 18 -33z m1170 -47 c1 -23 0 -23 -8
-5 -5 11 -8 36 -8 55 l0 35 8 -30 c4 -16 8 -41 8 -55z m-1323 7 c-8 -4 -27
-19 -42 -33 -42 -39 -54 -28 -33 33 11 29 12 30 50 19 30 -7 36 -12 25 -19z
m118 -12 c22 -4 37 -13 37 -21 0 -8 -4 -14 -9 -14 -5 0 -23 -11 -39 -25 -28
-23 -34 -24 -103 -17 l-74 7 28 20 c16 11 40 30 55 42 15 13 36 21 47 19 11
-3 37 -8 58 -11z m1163 -78 c1 -10 4 -37 6 -59 l3 -42 -60 2 c-119 5 -145 12
-181 51 -18 20 -34 39 -34 44 0 4 26 7 58 8 31 1 84 5 117 9 79 10 88 8 91
-13z m68 -49 c7 -69 -8 -79 -18 -12 -8 65 -8 90 3 79 5 -6 11 -36 15 -67z
m100 -66 c-15 -2 -37 -1 -50 2 -20 5 -24 13 -24 47 l0 40 50 -43 c49 -42 50
-43 24 -46z m-1471 70 l39 -7 -32 -23 -32 -24 -24 23 c-41 39 -31 45 49 31z
m272 -22 c196 -13 256 -17 363 -26 l82 -6 0 -108 c0 -58 -2 -109 -5 -111 -2
-3 -46 -1 -97 3 -51 4 -167 12 -258 18 -92 7 -172 17 -181 23 -10 7 -53 44
-97 84 l-80 71 26 25 c33 30 62 46 76 41 6 -1 83 -8 171 -14z m-421 -72 c-21
-73 -24 -81 -28 -77 -5 5 20 104 29 119 14 22 13 7 -1 -42z m82 38 c19 -19 19
-19 -16 -44 -16 -12 -28 -17 -26 -10 3 7 7 25 10 41 7 31 12 33 32 13z m1009
-16 l170 -10 101 -105 c125 -128 124 -130 -44 -122 -132 7 -426 28 -429 31 -2
1 0 52 4 113 4 74 10 110 17 108 6 -3 88 -9 181 -15z m-895 -90 l75 -70 -95 5
c-149 9 -159 12 -153 38 5 19 79 96 93 96 3 0 39 -31 80 -69z m1272 52 c3 -4
9 -43 12 -87 l6 -79 -85 84 c-47 47 -85 89 -85 94 0 10 141 -1 152 -12z m201
-12 c5 -4 -15 -26 -45 -47 -83 -61 -78 -61 -78 4 l0 58 57 -3 c32 -2 62 -7 66
-12z m-146 -37 c-3 -10 -5 -2 -5 17 0 19 2 27 5 18 2 -10 2 -26 0 -35z m182
-234 c1 -53 -1 -98 -4 -101 -8 -8 -109 13 -122 26 -6 6 -16 36 -21 66 -11 61
-14 55 77 174 l45 60 12 -65 c7 -35 13 -107 13 -160z m-116 142 c-40 -52 -49
-56 -39 -19 4 18 59 68 74 68 2 0 -14 -22 -35 -49z m-1287 -20 c18 -5 114 -85
114 -95 0 -2 -35 -4 -77 -5 -43 0 -116 -4 -163 -7 l-85 -5 -47 44 c-36 34 -46
49 -41 66 6 22 7 22 142 15 74 -4 145 -10 157 -13z m309 -21 c60 -6 110 -12
111 -13 5 -5 -15 -259 -20 -264 -5 -5 -114 91 -270 240 l-50 47 59 0 c33 0
109 -5 170 -10z m245 -138 c0 -71 -3 -163 -6 -205 l-7 -75 -54 51 -54 52 6
140 c4 77 8 146 10 153 3 7 23 12 55 12 l50 0 0 -128z m374 94 l159 -11 -94
-71 c-96 -72 -288 -214 -368 -272 -25 -17 -46 -30 -49 -28 -2 2 0 95 4 206 l7
202 91 -7 c50 -4 163 -13 250 -19z m-1227 -20 c-4 -10 -1 -13 7 -10 8 3 17 1
20 -4 6 -9 -39 -23 -48 -15 -7 7 6 43 16 43 6 0 8 -7 5 -14z m1496 -2 c3 -4
-17 -24 -45 -46 -47 -38 -53 -40 -90 -32 l-40 9 53 37 c50 35 105 49 122 32z
m-1108 -46 c-11 -7 -28 -17 -37 -23 -9 -5 -42 -28 -73 -49 l-56 -40 -56 56
-56 56 114 1 c62 1 115 4 118 6 2 3 18 5 35 5 28 0 29 -1 11 -12z m144 -68
c28 -25 78 -70 111 -100 l60 -55 -6 -62 -7 -63 -47 0 c-26 0 -74 -3 -107 -6
l-60 -7 -116 116 -116 116 60 41 c32 22 61 40 64 40 3 0 11 5 18 10 57 48 61
49 78 32 9 -10 39 -37 68 -62z m-340 -60 c0 -3 -16 -16 -37 -30 -88 -59 -111
-68 -176 -72 -65 -3 -65 -3 -60 22 19 83 45 165 56 172 10 6 10 8 -1 8 -32 0
6 19 44 22 37 3 45 -2 106 -57 37 -33 67 -62 68 -65z m1314 103 c3 -16 4 -29
2 -31 -2 -2 -19 0 -38 3 l-36 7 27 24 c35 30 39 30 45 -3z m-4206 -15 c-3 -7
-5 -2 -5 12 0 14 2 19 5 13 2 -7 2 -19 0 -25z m4026 -58 c-5 -4 -55 -42 -113
-85 -58 -43 -134 -102 -170 -130 -60 -48 -68 -51 -107 -47 -50 5 -53 13 -15
41 15 12 32 24 37 29 6 4 39 28 75 53 36 24 91 64 124 89 32 25 75 57 95 72
l36 26 23 -21 c12 -11 19 -24 15 -27z m404 13 c-3 -10 -5 -4 -5 12 0 17 2 24
5 18 2 -7 2 -21 0 -30z m-367 17 c0 -5 -2 -10 -4 -10 -3 0 -8 5 -11 10 -3 6
-1 10 4 10 6 0 11 -4 11 -10z m109 -10 c32 0 43 -18 50 -78 l7 -61 -25 19
c-112 81 -149 140 -79 126 17 -3 38 -6 47 -6z m221 -47 c8 -8 13 -233 4 -233
-20 0 -54 46 -54 73 0 17 -11 53 -24 81 -13 28 -26 63 -30 77 l-6 26 53 -9
c28 -5 54 -12 57 -15z m-270 -43 c107 -94 120 -108 120 -140 0 -37 4 -37 -190
0 -224 43 -206 37 -184 61 10 11 24 17 31 14 8 -2 12 -1 9 4 -3 5 9 19 26 32
17 13 50 39 72 56 23 18 44 32 47 30 3 -1 34 -27 69 -57z m180 -97 c0 -7 -4
-13 -10 -13 -9 0 -15 28 -24 115 -5 48 -4 47 14 -20 11 -38 20 -76 20 -82z
m-3180 117 c0 -5 -18 -10 -40 -10 -22 0 -40 5 -40 10 0 6 18 10 40 10 22 0 40
-4 40 -10z m3327 -40 c12 -48 2 -53 -15 -7 -14 39 -15 47 -4 47 4 0 13 -18 19
-40z m-1529 18 c-2 -7 2 -12 7 -13 14 -1 35 -15 35 -23 0 -4 -35 -9 -77 -10
l-78 -2 50 30 c55 33 66 36 63 18z m-3048 -159 c-5 -57 -9 -143 -10 -191 0
-109 -16 -192 -36 -184 -8 3 -14 0 -14 -7 0 -16 -45 -16 -61 0 -6 6 -11 23
-11 36 0 24 -3 25 -86 29 -53 3 -87 9 -90 16 -2 8 -29 12 -73 12 -39 0 -69 4
-69 10 0 6 -33 10 -80 10 l-80 0 0 -35 0 -35 -70 0 -70 0 0 35 c0 19 -4 35
-10 35 -5 0 -10 14 -10 30 0 17 5 30 10 30 6 0 10 18 10 40 l0 40 135 0 c131
0 137 1 160 25 14 13 25 31 25 40 0 12 14 15 70 15 63 0 70 2 70 20 0 11 5 20
10 20 6 0 10 9 10 20 0 17 7 20 50 20 28 0 50 -4 50 -10 0 -5 9 -10 20 -10 13
0 20 -7 20 -20 0 -18 7 -20 55 -20 l55 0 0 37 c0 33 20 107 27 100 1 -2 -2
-50 -7 -108z m101 -138 c-6 -108 -14 -207 -18 -221 l-7 -25 -6 25 c-4 16 -12
24 -23 22 -15 -2 -17 7 -16 70 0 40 6 132 12 203 11 123 13 130 35 133 12 2
23 9 23 15 1 7 3 4 6 -7 3 -10 0 -106 -6 -215z m2974 217 c-11 -6 -30 -20 -42
-30 -12 -11 -26 -17 -31 -14 -5 3 -12 -4 -15 -15 -4 -16 -11 -19 -29 -14 -15
4 -19 3 -10 -3 10 -7 7 -13 -15 -27 -20 -14 -53 -19 -128 -23 l-100 -4 95 64
c98 66 115 71 250 75 36 1 41 -1 25 -9z m103 -109 c-120 -10 -237 -9 -209 2
20 8 41 23 98 69 7 6 20 10 29 10 10 0 14 3 11 7 -4 3 1 11 10 18 13 10 25 3
75 -44 l59 -56 -73 -6z m1409 99 c-3 -8 -6 -5 -6 6 -1 11 2 17 5 13 3 -3 4
-12 1 -19z m-983 -31 c25 -24 46 -46 46 -48 0 -3 -23 -6 -51 -8 l-50 -2 2 50
c2 28 3 51 4 51 1 0 23 -19 49 -43z m966 2 c0 -9 7 -30 15 -45 8 -16 15 -37
15 -47 0 -10 7 -29 16 -43 15 -22 15 -24 0 -18 -9 3 -16 12 -16 19 0 7 -10 15
-21 18 -19 5 -21 11 -16 46 3 23 1 41 -4 41 -5 0 -9 17 -9 38 0 27 3 33 10 22
5 -8 10 -22 10 -31z m-1750 24 c-8 -3 -24 -13 -35 -23 -11 -10 -32 -25 -47
-35 l-28 -17 12 33 c14 43 24 49 73 48 22 0 33 -3 25 -6z m1176 -79 c61 -52
68 -66 24 -54 -16 5 -30 7 -30 5 0 -3 -10 -1 -23 4 -13 5 -44 10 -68 12 -24 1
-48 4 -52 7 -7 3 81 72 92 72 2 0 28 -21 57 -46z m184 11 c69 -13 141 -26 161
-30 34 -5 37 -8 41 -45 2 -22 1 -40 -3 -40 -4 0 -66 9 -138 20 l-132 20 -60
52 c-32 29 -59 54 -59 55 0 3 27 -2 190 -32z m270 -59 c0 -30 -4 -57 -9 -60
-11 -7 -24 75 -15 97 13 34 24 16 24 -37z m-722 -8 c12 -15 7 -20 -122 -118
l-66 -49 0 48 0 48 71 51 c73 53 87 55 117 20z m-210 -18 c2 -30 -2 -39 -28
-58 -17 -13 -35 -22 -40 -20 -10 4 -110 97 -110 103 0 5 100 12 145 11 27 -1
30 -5 33 -36z m66 11 c-21 -16 -41 -28 -43 -26 -2 2 -1 16 3 30 5 21 12 25 43
25 l37 0 -40 -29z m-281 1 c10 -10 14 -22 10 -27 -5 -4 -2 -5 4 -1 8 4 32 -11
63 -40 l50 -46 -38 -30 c-64 -51 -80 -55 -237 -63 -82 -4 -166 -8 -186 -10
-32 -3 -42 3 -107 67 l-72 70 45 35 c53 40 62 42 265 52 85 4 162 9 171 10 9
0 23 -7 32 -17z m652 -7 c44 -8 95 -16 113 -19 19 -2 46 -17 61 -33 15 -15 65
-63 110 -106 81 -78 83 -84 53 -119 -8 -10 -10 -18 -4 -18 6 0 19 11 29 26
l19 25 23 -25 c22 -23 22 -26 7 -42 -12 -11 -25 -14 -44 -10 -15 4 -43 9 -62
11 -111 13 -158 27 -196 61 -180 160 -274 248 -274 254 0 20 31 19 165 -5z
m522 -12 c-3 -10 -5 -4 -5 12 0 17 2 24 5 18 2 -7 2 -21 0 -30z m56 -10 c4
-18 3 -33 -2 -33 -12 0 -23 48 -15 61 8 13 10 10 17 -28z m-1698 15 c-11 -6
-22 -14 -25 -17 -27 -32 -40 -33 -70 -8 l-30 26 62 4 c35 2 68 4 73 5 6 1 1
-4 -10 -10z m973 -52 c61 -58 96 -89 171 -155 34 -29 60 -55 58 -57 -2 -3 -51
4 -108 15 -233 43 -338 61 -359 61 -13 0 -20 5 -18 13 4 9 192 162 206 166 1
1 24 -19 50 -43z m-1100 -38 c-18 -14 -35 -25 -37 -23 -2 3 2 24 9 49 l12 44
25 -21 24 -22 -33 -27z m1576 47 c55 -8 101 -15 103 -15 2 0 3 -17 3 -37 0
-35 -35 -103 -54 -103 -4 0 -36 27 -70 60 -34 33 -77 73 -95 89 -31 28 -32 30
-10 26 13 -3 69 -12 123 -20z m216 11 c0 -3 -4 -8 -10 -11 -5 -3 -10 -1 -10 4
0 6 5 11 10 11 6 0 10 -2 10 -4z m109 -23 c2 -2 -5 -3 -17 -3 -14 0 -22 6 -22
16 0 14 3 15 18 3 9 -7 19 -15 21 -16z m-99 -37 c0 -13 5 -26 10 -28 13 -4
-19 -95 -35 -102 -19 -7 -15 36 7 66 22 32 16 53 -7 22 -13 -18 -14 -16 -15
24 0 35 3 42 20 42 14 0 20 -7 20 -24z m-1000 -18 c0 -31 0 -31 -21 -12 -19
17 -19 19 -3 31 24 17 24 17 24 -19z m937 -45 c-2 -16 -4 -3 -4 27 0 30 2 43
4 28 2 -16 2 -40 0 -55z m187 60 c13 -8 -16 -23 -46 -23 -22 0 -28 5 -28 21 0
18 4 20 33 14 17 -4 36 -10 41 -12z m-1796 -52 l62 -59 -120 -7 c-67 -4 -124
-4 -127 -1 -14 13 14 56 57 90 25 19 50 35 55 35 6 0 38 -26 73 -58z m641 -5
l23 -24 -66 -4 -67 -3 33 27 c41 34 49 34 77 4z m1165 -8 c3 -13 7 -86 9 -163
l5 -140 -24 75 c-13 41 -33 104 -45 139 l-20 64 28 23 c35 29 42 29 47 2z
m-242 -39 c0 -19 5 -42 10 -53 12 -22 -3 -15 -39 17 l-22 19 21 29 c25 34 29
32 30 -12z m-805 -68 c123 -115 453 -443 453 -450 0 -3 -9 -17 -20 -31 -31
-40 -23 -48 9 -10 l29 35 93 -93 94 -93 -155 7 c-85 4 -157 11 -158 16 -3 5
-9 5 -15 0 -7 -6 -124 -4 -292 4 -154 7 -390 18 -525 24 -135 5 -285 13 -335
16 l-89 6 29 24 c17 14 73 57 125 97 199 153 564 434 617 475 31 23 59 41 63
40 5 -2 39 -32 77 -67z m-173 30 c-21 -17 -59 -45 -84 -63 -25 -17 -72 -54
-105 -81 -83 -68 -78 -64 -192 -150 l-103 -77 -30 28 c-16 16 -30 31 -30 33 0
3 25 22 56 44 31 22 65 48 75 58 11 9 22 17 25 17 3 0 67 47 142 104 75 57
144 105 152 108 8 3 42 6 74 7 l60 2 -40 -30z m-181 -4 c-77 -64 -144 -107
-156 -101 -6 4 -36 30 -65 58 l-53 51 98 6 c54 3 122 6 151 7 l54 2 -29 -23z
m512 -2 c77 -14 183 -32 235 -41 90 -15 98 -19 145 -62 28 -26 52 -50 53 -55
2 -4 -13 -31 -35 -60 -21 -29 -50 -69 -63 -89 -14 -21 -28 -38 -32 -38 -5 0
-8 -6 -8 -14 0 -7 -7 -19 -15 -26 -13 -11 -37 8 -163 132 -81 79 -178 174
-217 211 -38 37 -63 67 -55 67 8 0 78 -11 155 -25z m784 -100 c2 -146 -12
-165 -45 -62 -20 61 -20 63 -2 107 10 25 21 53 24 63 15 42 22 8 23 -108z
m-1548 54 c33 -28 59 -54 59 -58 0 -4 -77 -13 -172 -19 l-171 -12 -39 38 c-44
42 -50 79 -15 87 12 3 58 6 102 8 44 2 102 4 129 5 45 2 52 -1 107 -49z m1626
-124 c9 -27 18 -56 21 -64 4 -10 -2 -12 -29 -6 -19 4 -37 13 -41 19 -4 6 -7
58 -7 116 l0 105 20 -60 c10 -33 26 -82 36 -110z m-4763 140 c-4 -8 -15 -15
-25 -15 -10 0 -19 7 -19 15 0 9 9 15 25 15 18 0 23 -4 19 -15z m4384 -60 c7
-5 -11 -35 -22 -35 -11 1 -66 45 -66 53 0 4 81 -13 88 -18z m179 9 c-3 -3 -12
-4 -19 -1 -8 3 -5 6 6 6 11 1 17 -2 13 -5z m-1772 -34 c18 -20 17 -20 -8 -20
-20 0 -27 5 -27 20 0 11 4 20 8 20 5 0 17 -9 27 -20z m1675 11 c0 -3 -18 -18
-39 -33 -30 -21 -40 -25 -44 -14 -10 24 21 55 53 54 17 -1 30 -4 30 -7z m83
-8 c4 -3 -7 -17 -25 -29 -26 -19 -34 -21 -47 -11 -14 10 -14 10 -4 -4 15 -18
8 -29 -19 -29 -25 0 -23 9 14 47 29 30 65 42 81 26z m-1353 -27 c0 -2 -43 -36
-96 -76 l-96 -72 -59 58 c-33 32 -59 61 -59 65 0 4 57 10 128 15 70 5 139 10
155 11 15 1 27 1 27 -1z m1377 -63 c-3 -2 -21 -1 -41 2 l-36 7 38 27 37 28 3
-30 c2 -16 1 -31 -1 -34z m266 0 c4 -31 2 -53 -3 -53 -6 0 -10 26 -10 57 0 68
5 67 13 -4z m-1923 -29 l70 -67 -54 -42 c-52 -40 -60 -43 -140 -49 -48 -4 -90
-5 -95 -2 -4 3 5 54 20 113 15 59 28 109 29 111 0 1 23 2 50 2 48 0 53 -3 120
-66z m1465 36 c17 -18 16 -21 -15 -59 -37 -48 -180 -166 -180 -150 0 6 12 26
28 44 15 17 34 42 42 55 8 12 24 35 35 49 11 14 27 38 34 54 17 32 31 34 56 7z
m201 -33 c1 -1 5 -29 9 -62 l7 -60 -48 45 c-26 25 -55 53 -65 63 -11 9 -19 20
-19 23 0 6 111 -3 116 -9z m-176 -12 c-7 -9 -15 -13 -17 -11 -7 7 7 26 19 26
6 0 6 -6 -2 -15z m68 -39 c21 -19 59 -54 86 -79 41 -38 49 -51 53 -91 5 -44 5
-46 -20 -46 -14 0 -36 4 -49 9 -13 5 -59 14 -103 21 -44 6 -113 19 -154 28
l-73 17 23 20 c19 17 22 18 16 3 -11 -31 7 -19 41 28 19 25 36 44 38 41 2 -2
25 16 51 39 26 24 49 44 51 44 2 0 20 -15 40 -34z m198 -69 c17 -56 14 -81 -7
-60 -14 14 -29 79 -28 128 1 45 1 43 35 -68z m14 81 c0 -13 3 -34 6 -48 4 -18
3 -21 -4 -10 -16 25 -25 80 -13 80 6 0 11 -10 11 -22z m105 -9 c6 -4 19 -36
29 -71 17 -58 52 -169 76 -242 5 -16 8 -31 7 -33 -2 -1 -45 36 -95 83 l-92 86
0 99 0 99 33 -7 c17 -3 37 -9 42 -14z m70 -77 c3 -26 9 -56 12 -67 3 -11 2
-17 -1 -14 -4 4 -13 29 -21 55 -7 27 -16 57 -20 67 -5 13 -3 16 8 11 9 -3 18
-24 22 -52z m-1827 8 l22 -28 -65 -4 c-36 -1 -65 0 -65 5 0 4 4 7 8 7 5 0 22
11 38 25 16 14 31 25 34 24 3 0 15 -13 28 -29z m-2833 -48 c-2 -9 -4 -42 -6
-72 l-2 -55 -6 45 c-6 42 -7 44 -19 23 -15 -27 -15 -36 -1 -27 8 5 9 2 2 -11
-6 -9 -9 -38 -8 -63 2 -33 1 -36 -2 -9 -2 20 -7 37 -11 37 -4 0 -6 21 -4 46 2
25 7 43 10 40 11 -12 32 18 32 46 0 16 4 27 9 24 5 -4 8 -14 6 -24z m-108 -69
c-2 -16 -4 -5 -4 22 0 28 2 40 4 28 2 -13 2 -35 0 -50z m2943 63 c0 -3 -152
-121 -224 -173 -31 -24 -62 -27 -129 -15 l-38 7 119 87 c65 47 131 88 148 91
39 6 124 8 124 3z m-220 -26 c-20 -12 -61 -43 -74 -55 -22 -21 -77 -57 -81
-53 -3 2 3 30 11 61 l17 56 66 3 c73 3 83 1 61 -12z m-214 -76 c-8 -33 -18
-71 -21 -86 -3 -16 -9 -28 -14 -28 -5 0 0 35 10 78 24 95 28 106 35 100 2 -3
-2 -32 -10 -64z m1841 10 c67 -13 134 -24 147 -24 32 0 33 -2 42 -89 l7 -74
-99 7 -99 7 -105 105 -105 106 45 -7 c25 -4 100 -17 167 -31z m253 -86 c-1
-112 -16 -118 -20 -8 -4 88 -2 110 10 110 6 0 10 -41 10 -102z m59 37 c9 -3
50 -37 91 -75 l75 -70 -41 0 c-23 0 -69 3 -103 6 l-61 7 1 91 c0 72 3 86 11
69 6 -13 18 -25 27 -28z m-2049 -104 c0 -18 -18 -21 -30 -6 -10 13 -9 15 9 15
11 0 21 -4 21 -9z m695 -26 c204 -8 373 -15 378 -15 4 0 7 -50 7 -111 l0 -112
-137 6 c-76 4 -270 12 -431 19 l-294 12 -36 29 c-21 16 -68 58 -106 95 l-68
66 23 19 c22 18 35 19 159 13 74 -3 302 -13 505 -21z m-759 -31 c-25 -18 -37
-18 -31 1 17 52 14 50 33 31 16 -16 16 -18 -2 -32z m-69 9 c-3 -5 -10 -27 -16
-50 -7 -26 -18 -43 -27 -43 -11 0 -9 11 11 50 14 28 28 50 31 50 3 0 3 -3 1
-7z m1411 -4 c26 1 42 -2 42 -10 0 -8 4 -8 13 -1 9 8 73 8 216 2 l203 -9 84
-83 c45 -45 80 -86 77 -92 -3 -5 -1 -6 5 -2 11 6 42 -19 42 -35 0 -5 -29 -9
-65 -9 -92 0 -604 19 -702 26 l-83 6 0 110 0 111 63 -8 c34 -5 81 -7 105 -6z
m-1233 -70 c28 -25 63 -58 79 -73 l29 -26 -65 0 c-36 0 -99 3 -140 6 l-75 7 7
31 c4 17 11 38 14 46 10 22 79 69 91 62 5 -3 33 -27 60 -53z m1891 37 c7 -19
21 -136 16 -136 -7 0 -146 132 -151 142 -1 5 27 8 64 7 37 -1 69 -7 71 -13z
m191 -2 l61 -7 -37 -31 c-20 -17 -38 -33 -41 -36 -3 -3 -24 -20 -47 -39 l-43
-33 0 76 c0 87 -8 82 107 70z m-130 -36 c-3 -7 -5 -2 -5 12 0 14 2 19 5 13 2
-7 2 -19 0 -25z m253 -165 c5 -65 10 -142 10 -170 l0 -53 -97 0 -98 0 -22 74
c-13 41 -23 81 -23 90 0 9 21 35 47 58 26 24 72 66 102 95 42 38 58 48 64 38
4 -7 11 -67 17 -132z m-4720 105 c0 -23 -3 -29 -11 -21 -6 6 -8 20 -4 32 9 30
15 26 15 -11z m2300 -3 c0 -8 -7 -15 -16 -15 -14 0 -14 3 -4 15 7 8 14 15 16
15 2 0 4 -7 4 -15z m-2293 -82 c-3 -10 -5 -4 -5 12 0 17 2 24 5 18 2 -7 2 -21
0 -30z m2596 2 c63 -4 81 -8 100 -27 35 -34 178 -162 191 -170 21 -14 -1 -16
-104 -8 -58 5 -148 12 -201 15 l-96 7 -81 77 c-75 70 -93 97 -76 114 6 6 48 5
267 -8z m-338 -15 c7 -12 -37 -175 -60 -219 -13 -27 -44 -145 -45 -173 0 -5
-5 -8 -10 -8 -12 0 -11 3 47 210 23 85 43 164 43 177 0 23 14 31 25 13z m825
-1 c146 -6 266 -12 268 -14 3 -3 -28 -508 -32 -512 -1 -1 -18 12 -37 30 -20
18 -87 77 -149 132 -63 55 -152 136 -198 180 -128 122 -186 175 -194 175 -5 0
-8 5 -8 10 0 13 24 12 350 -1z m-3203 -31 c-3 -7 -5 -2 -5 12 0 14 2 19 5 13
2 -7 2 -19 0 -25z m3643 9 c13 -11 14 -52 5 -339 -6 -180 -14 -330 -17 -333
-3 -4 -40 24 -83 62 l-76 68 6 110 c3 61 8 157 10 215 2 58 7 133 11 168 l6
62 61 0 c34 0 69 -6 77 -13z m-3613 -44 c-3 -10 -5 -2 -5 17 0 19 2 27 5 18 2
-10 2 -26 0 -35z m3683 39 c0 -13 -12 -22 -22 -16 -10 6 -1 24 13 24 5 0 9 -4
9 -8z m440 -7 c107 -3 224 -8 259 -11 l64 -6 -25 -23 c-14 -12 -63 -53 -109
-90 -46 -38 -86 -71 -89 -75 -3 -3 -52 -44 -110 -90 -58 -46 -112 -91 -120
-100 -8 -8 -71 -60 -140 -115 -69 -55 -138 -112 -155 -127 -61 -56 -61 -55
-53 224 10 374 10 371 38 403 25 26 25 26 135 21 61 -3 198 -8 305 -11z
m-1665 -67 c30 -29 55 -55 55 -58 0 -7 -124 0 -132 8 -7 7 10 102 18 102 2 0
28 -24 59 -52z m2072 20 c1 -7 4 -43 8 -80 l8 -67 -112 -3 c-61 -2 -111 0
-111 3 0 3 11 12 25 19 14 7 25 17 25 22 0 4 5 8 10 8 6 0 28 15 48 34 81 75
98 86 99 64z m-1997 -108 c24 -6 64 -38 123 -98 l89 -89 -54 -25 c-53 -25 -53
-25 -213 -15 -88 6 -161 11 -163 13 -2 1 9 52 24 113 l27 111 66 0 c36 0 82
-4 101 -10z m2313 -10 c3 -11 1 -23 -4 -26 -5 -3 -9 6 -9 20 0 31 6 34 13 6z
m-1825 -25 c7 -6 18 0 -123 -72 l-120 -62 -83 77 c-45 42 -83 79 -82 82 0 7
401 -18 408 -25z m1791 -200 l1 -175 -49 24 c-51 26 -61 40 -61 86 0 16 -4 30
-8 32 -8 3 -62 165 -62 186 0 7 28 12 78 15 42 1 82 4 88 5 8 1 12 -49 13
-173z m41 150 c0 -14 -4 -25 -10 -25 -11 0 -14 33 -3 43 11 11 13 8 13 -18z
m-1824 -52 c-3 -38 -9 -107 -13 -155 -3 -49 -7 -88 -9 -88 -1 0 -24 21 -51 46
-26 26 -74 69 -105 96 l-57 50 112 58 c62 33 116 59 121 60 5 0 6 -30 2 -67z
m1532 -10 c19 -120 14 -147 -18 -108 -7 8 -17 15 -22 15 -5 0 -66 35 -134 77
-85 52 -121 79 -112 85 7 4 72 8 144 8 l131 0 11 -77z m77 -42 c22 -77 25 -95
14 -102 -27 -17 -26 -19 -55 191 -7 56 11 16 41 -89z m-1517 67 c25 -24 78
-72 117 -108 110 -103 146 -134 160 -142 9 -5 11 -28 9 -75 -12 -232 -17 -283
-24 -283 -5 0 -59 48 -120 108 -62 59 -136 129 -166 156 l-54 49 5 116 c7 139
15 221 21 221 3 0 26 -19 52 -42z m1237 -58 c33 -20 81 -49 108 -64 26 -15 47
-29 47 -31 0 -3 -63 -5 -140 -5 l-140 0 0 85 0 86 33 -17 c17 -9 59 -34 92
-54z m526 -67 c10 -54 18 -105 18 -113 0 -24 -49 101 -58 146 -7 39 3 83 16
70 3 -3 14 -49 24 -103z m-681 32 l0 -65 -82 0 c-48 0 -78 4 -72 9 44 41 140
121 146 121 5 0 8 -29 8 -65z m-1417 -6 c10 -11 17 -22 15 -23 -2 -1 -25 -1
-51 2 l-49 4 29 18 c36 24 35 24 56 -1z m-558 -51 c-10 -50 -26 -100 -31 -95
-4 4 9 74 22 115 8 26 15 10 9 -20z m283 22 c39 0 72 -4 72 -8 0 -4 -42 -28
-92 -52 -51 -25 -119 -60 -152 -78 -32 -18 -62 -31 -66 -30 -3 2 3 43 14 92
l20 88 66 -6 c36 -3 98 -6 138 -6z m250 -20 c39 0 72 -4 72 -9 0 -5 -46 -33
-102 -62 -57 -28 -137 -70 -178 -92 -165 -88 -183 -97 -195 -97 -7 0 -15 3
-17 8 -1 4 -17 19 -35 34 l-32 26 72 41 c167 94 303 160 322 155 11 -2 53 -4
93 -4z m-2882 -62 c-3 -29 -6 -64 -7 -78 l-1 -25 -8 25 c-17 53 -10 130 12
130 7 0 9 -19 4 -52z m5010 -65 c18 -40 29 -73 24 -73 -4 0 -22 8 -39 18 -30
17 -31 18 -30 92 1 41 4 66 6 56 3 -11 20 -53 39 -93z m-686 32 c0 -37 -4 -65
-10 -65 -5 0 -10 5 -10 10 0 6 -5 10 -11 10 -10 0 -140 81 -163 102 -6 4 36 8
92 8 l102 0 0 -65z m367 57 c7 -4 19 -64 28 -137 8 -72 19 -158 23 -192 5 -35
7 -63 6 -63 -6 0 -108 62 -188 114 -44 29 -109 70 -143 92 l-63 39 0 78 0 77
163 0 c89 0 167 -4 174 -8z m113 -26 c0 -5 -7 -3 -15 4 -8 7 -12 17 -9 22 7
10 24 -9 24 -26z m-725 -243 c-4 -131 -9 -240 -11 -242 -2 -2 -23 14 -47 35
-24 21 -83 73 -130 114 -48 41 -87 82 -87 90 0 8 33 41 73 72 39 32 101 82
137 113 36 30 67 55 68 55 2 0 1 -107 -3 -237z m715 52 l-5 -140 -18 145 c-23
190 -23 187 6 158 21 -22 22 -28 17 -163z m-4720 113 c-1 -41 -4 -58 -9 -48
-8 14 -3 110 5 110 2 0 4 -28 4 -62z m2229 -34 c-7 -27 -14 -43 -16 -37 -5 14
16 97 23 90 3 -2 -1 -26 -7 -53z m2551 -54 c12 -41 26 -85 31 -98 14 -37 11
-45 -30 -74 -48 -34 -55 -35 -48 -5 4 12 7 78 8 146 0 67 5 119 9 114 4 -4 18
-42 30 -83z m44 69 c20 -12 37 -28 37 -37 8 -113 2 -168 -15 -151 -4 3 -17 44
-31 90 -14 46 -28 92 -31 102 -7 22 -3 22 40 -4z m-1313 -6 c83 -67 101 -90
97 -124 -2 -27 -14 -42 -68 -85 -35 -29 -65 -52 -65 -51 -3 8 8 277 11 277 2
0 14 -8 25 -17z m1434 -67 c20 -15 19 -15 -13 -45 -18 -17 -35 -31 -38 -31 -2
0 -4 25 -4 55 0 60 3 61 55 21z m-2576 -47 c1 -4 -83 -49 -93 -49 -4 0 11 74
19 98 4 10 14 6 39 -15 19 -15 35 -30 35 -34z m-162 29 c-3 -8 -6 -5 -6 6 -1
11 2 17 5 13 3 -3 4 -12 1 -19z m2773 -34 c0 -4 -12 -21 -27 -38 -16 -17 -36
-43 -45 -56 l-17 -25 0 27 c-1 20 10 38 37 63 35 33 52 42 52 29z m-2764 -70
c-4 -9 -9 -15 -11 -12 -3 3 -3 13 1 22 4 9 9 15 11 12 3 -3 3 -13 -1 -22z
m2654 -41 c0 -22 -2 -25 -10 -13 -13 20 -13 40 0 40 6 0 10 -12 10 -27z m-30
-37 c0 -19 -8 -24 -51 -34 -29 -7 -53 -11 -55 -9 -6 6 90 75 98 71 4 -3 8 -15
8 -28z m-2683 -118 c-3 -8 -6 -5 -6 6 -1 11 2 17 5 13 3 -3 4 -12 1 -19z"/>
<path d="M4290 7560 c0 -5 5 -10 11 -10 5 0 7 5 4 10 -3 6 -8 10 -11 10 -2 0
-4 -4 -4 -10z"/>
<path d="M4395 7540 c-3 -5 -2 -10 4 -10 5 0 13 5 16 10 3 6 2 10 -4 10 -5 0
-13 -4 -16 -10z"/>
<path d="M4156 7471 c-4 -5 -2 -12 3 -15 5 -4 12 -2 15 3 4 5 2 12 -3 15 -5 4
-12 2 -15 -3z"/>
<path d="M3594 6884 c3 -9 6 -18 6 -20 0 -2 5 -4 10 -4 6 0 10 9 10 20 0 12
-7 20 -16 20 -11 0 -14 -5 -10 -16z"/>
<path d="M3640 6845 c0 -8 4 -15 9 -15 5 0 11 7 15 15 3 9 0 15 -9 15 -8 0
-15 -7 -15 -15z"/>
<path d="M3697 6790 c-9 -13 -14 -27 -11 -32 8 -12 37 29 32 44 -3 7 -11 2
-21 -12z"/>
<path d="M4640 3951 c0 -5 5 -13 10 -16 6 -3 10 -2 10 4 0 5 -4 13 -10 16 -5
3 -10 2 -10 -4z"/>
<path d="M1153 2245 c0 -27 2 -38 4 -22 2 15 2 37 0 50 -2 12 -4 0 -4 -28z"/>
<path d="M5059 1523 c-13 -16 -12 -17 4 -4 9 7 17 15 17 17 0 8 -8 3 -21 -13z"/>
<path d="M5077 1433 c-4 -3 -7 -11 -7 -17 0 -6 5 -5 12 2 6 6 9 14 7 17 -3 3
-9 2 -12 -2z"/>
<path d="M11460 8718 c-36 -33 -157 -149 -270 -257 -113 -108 -257 -245 -320
-306 -63 -60 -117 -112 -120 -115 -3 -3 -53 -50 -110 -105 -58 -55 -157 -149
-220 -210 -63 -60 -192 -182 -285 -271 -94 -88 -312 -295 -485 -459 -374 -354
-409 -387 -655 -620 -104 -99 -221 -209 -260 -246 -38 -36 -92 -86 -119 -110
-27 -24 -61 -55 -75 -69 -14 -14 -64 -61 -111 -105 -47 -43 -128 -119 -180
-169 -52 -50 -119 -112 -148 -138 -30 -26 -55 -56 -56 -65 -2 -10 -9 -18 -17
-19 -28 -2 -30 -4 -14 -20 15 -15 19 -14 48 12 18 16 36 32 42 37 6 5 5 11 -3
16 -9 5 8 27 55 71 38 35 104 98 148 139 44 42 152 143 240 226 88 82 198 186
245 231 47 44 123 116 170 160 238 223 280 262 550 519 52 50 171 162 265 250
282 266 369 348 675 640 81 78 239 228 300 285 67 63 622 593 715 682 44 43
76 78 70 78 -5 0 -39 -28 -75 -62z"/>
<path d="M6845 7610 c3 -5 8 -10 11 -10 2 0 4 5 4 10 0 6 -5 10 -11 10 -5 0
-7 -4 -4 -10z"/>
<path d="M3237 6174 c3 -7 9 -14 14 -14 14 0 10 17 -5 23 -10 4 -13 1 -9 -9z"/>
<path d="M12918 6144 c-157 -38 -307 -162 -394 -327 -20 -38 -52 -83 -70 -99
-18 -16 -38 -45 -44 -64 -9 -27 -21 -40 -49 -51 -144 -57 -182 -78 -187 -100
-9 -36 19 -60 124 -109 51 -24 95 -50 98 -58 3 -8 -3 -31 -14 -53 -19 -36 -19
-40 -4 -68 9 -17 17 -47 19 -68 1 -21 7 -46 13 -56 13 -26 -1 -68 -44 -132
-45 -67 -47 -102 -8 -118 26 -11 29 -17 29 -64 1 -98 6 -140 19 -166 8 -14 14
-45 14 -69 0 -89 48 -131 155 -139 41 -3 82 2 129 15 38 11 75 18 82 15 7 -3
25 -25 39 -49 14 -24 34 -48 45 -54 29 -15 25 -54 -9 -93 -29 -33 -101 -165
-101 -186 0 -15 -23 -14 -38 1 -8 8 -15 9 -22 2 -7 -7 -4 -19 11 -38 l22 -28
-38 -131 c-65 -230 -95 -349 -95 -383 0 -50 -26 -161 -56 -239 -15 -38 -37
-103 -50 -142 l-22 -73 23 0 c13 0 27 -4 30 -10 3 -5 0 -7 -8 -4 -8 3 -18 1
-22 -5 -3 -6 -11 -11 -16 -11 -6 0 -7 5 -4 10 8 12 -4 12 -77 0 -41 -6 -65
-16 -82 -34 -19 -21 -33 -26 -71 -26 -60 0 -288 28 -339 41 -44 12 -78 6 -115
-20 -14 -10 -76 -40 -137 -66 -106 -45 -113 -49 -128 -88 -8 -22 -30 -62 -48
-88 l-33 -48 -115 -1 c-63 0 -185 -3 -270 -7 l-155 -6 -39 99 c-22 54 -77 191
-123 303 -78 191 -88 210 -150 280 -149 171 -177 200 -185 195 -4 -3 -8 2 -8
11 0 19 -313 394 -347 415 -21 13 -25 13 -33 0 -12 -19 -10 -24 62 -205 33
-82 68 -170 78 -195 10 -25 75 -189 145 -365 70 -176 153 -387 186 -470 33
-82 68 -162 79 -177 11 -15 20 -37 20 -48 0 -11 7 -37 15 -57 9 -20 13 -43 11
-50 -8 -20 47 -118 82 -148 18 -15 32 -34 32 -44 0 -36 149 -167 212 -186 50
-15 121 -55 230 -131 42 -29 94 -62 116 -73 54 -27 145 -62 150 -56 2 2 10 -2
17 -9 8 -7 42 -16 77 -19 35 -4 95 -18 133 -33 154 -58 231 -85 260 -90 16 -3
34 -9 40 -13 11 -9 28 -13 145 -33 l75 -13 6 -185 c3 -102 11 -201 17 -220 20
-57 41 -222 35 -267 -3 -26 -11 -43 -19 -43 -18 0 -39 -69 -26 -82 7 -7 0 -21
-24 -43 -39 -37 -43 -65 -13 -106 l21 -30 -25 -19 c-15 -12 -24 -30 -25 -49
-1 -38 -16 -65 -58 -108 -19 -18 -43 -51 -54 -72 -10 -21 -30 -47 -43 -57 -22
-17 -97 -176 -113 -239 l-6 -25 1258 0 1259 0 26 43 c45 71 60 107 54 126 -3
9 -7 48 -10 87 -7 79 -20 127 -41 144 -9 8 -14 31 -14 64 0 63 -23 198 -50
291 -12 45 -18 86 -14 115 3 28 0 55 -9 70 -9 19 -11 41 -4 90 5 36 5 92 2
125 -4 33 -8 130 -9 215 -1 109 -5 162 -14 179 -19 33 -7 88 63 271 70 186
108 382 120 620 3 69 13 204 21 300 16 188 13 508 -8 752 -9 111 -8 136 7 198
15 62 16 83 5 168 -13 112 -33 160 -115 286 -89 136 -167 223 -275 307 -109
84 -89 78 -280 92 -30 2 -40 9 -72 59 -49 74 -90 89 -174 66 l-55 -16 -10 25
c-5 14 -7 47 -3 73 5 39 1 58 -20 107 l-27 59 34 65 c61 117 58 113 67 98 6
-9 11 -4 15 17 18 79 16 77 84 78 56 2 67 5 87 30 14 16 21 32 17 39 -11 16
-13 65 -12 258 2 265 -24 343 -155 474 -96 96 -150 122 -340 160 -139 28 -258
31 -348 9z m-2573 -2583 c82 -96 188 -218 235 -272 l85 -97 99 -248 c54 -137
101 -255 103 -261 4 -10 -17 -13 -83 -13 -49 0 -105 -4 -123 -10 -58 -16 -35
-62 -266 510 -57 140 -133 329 -170 420 -81 201 -86 215 -54 175 13 -16 91
-108 174 -204z m1449 -859 c3 -5 -21 -14 -54 -19 -59 -9 -70 -7 -50 13 13 13
97 18 104 6z m620 -127 c3 -8 1 -15 -3 -15 -5 0 -11 7 -15 15 -3 8 -1 15 3 15
5 0 11 -7 15 -15z"/>
<path d="M1905 5490 c-3 -5 -1 -10 4 -10 6 0 11 5 11 10 0 6 -2 10 -4 10 -3 0
-8 -4 -11 -10z"/>
<path d="M7880 5469 c0 -5 5 -7 10 -4 6 3 10 8 10 11 0 2 -4 4 -10 4 -5 0 -10
-5 -10 -11z"/>
<path d="M2403 5183 c-30 -6 -32 -43 -3 -43 13 0 20 -7 20 -20 0 -18 7 -20 70
-20 l70 0 0 35 0 35 -62 0 c-45 0 -59 3 -48 10 12 8 11 9 -5 8 -11 0 -30 -3
-42 -5z"/>
<path d="M7416 4662 l-19 -27 24 22 c12 12 21 24 18 27 -2 2 -13 -8 -23 -22z"/>
<path d="M7363 4589 c-15 -22 -57 -82 -94 -132 -73 -103 -82 -117 -76 -117 4
0 179 243 201 278 18 30 -5 8 -31 -29z"/>
<path d="M7144 4462 c-121 -176 -173 -254 -150 -227 38 44 202 285 193 285 -2
0 -21 -26 -43 -58z"/>
<path d="M7154 4293 c-69 -94 -98 -138 -77 -118 16 15 114 155 108 155 -2 0
-16 -17 -31 -37z"/>
<path d="M6940 4170 c-12 -16 -19 -30 -16 -30 2 0 14 14 26 30 12 17 19 30 16
30 -2 0 -14 -13 -26 -30z"/>
<path d="M7049 4143 c-29 -35 -41 -53 -36 -53 2 0 17 16 31 35 28 36 31 49 5
18z"/>
<path d="M6896 4102 l-19 -27 24 22 c12 12 21 24 18 27 -2 2 -13 -8 -23 -22z"/>
<path d="M6835 4019 c-20 -28 -32 -48 -26 -45 12 8 74 96 67 96 -2 0 -21 -23
-41 -51z"/>
<path d="M6968 4033 c-13 -16 -40 -54 -136 -193 l-24 -35 26 30 c14 17 55 72
91 123 61 87 76 113 43 75z"/>
<path d="M6780 3937 c-9 -12 -33 -46 -54 -74 -21 -29 -35 -53 -33 -53 7 0 109
141 105 145 -2 2 -10 -7 -18 -18z"/>
<path d="M6780 3768 c-15 -21 -17 -28 -6 -19 16 13 41 51 33 51 -2 0 -14 -15
-27 -32z"/>
<path d="M6643 3743 c-10 -16 -20 -30 -23 -33 -15 -14 -51 -72 -48 -76 3 -2
22 22 43 53 22 32 43 64 48 71 5 6 7 12 3 12 -3 0 -13 -12 -23 -27z"/>
<path d="M6730 3695 c-7 -9 -11 -17 -9 -20 3 -2 10 5 17 15 14 24 10 26 -8 5z"/>
<path d="M6678 3628 c-28 -37 -51 -78 -44 -78 4 0 45 58 70 98 15 24 -2 11
-26 -20z"/>
<path d="M19811 2033 c-41 -5 -61 -24 -61 -56 0 -21 -6 -26 -37 -30 -95 -14
-100 -17 -112 -58 -9 -31 -17 -39 -36 -39 -13 0 -26 -6 -29 -12 -5 -10 -7 -10
-12 0 -10 21 -21 13 -38 -28 -13 -34 -20 -40 -45 -40 -29 0 -54 -17 -64 -42
-4 -10 -8 -9 -16 2 -10 13 -12 13 -21 0 -5 -8 -10 -24 -10 -35 0 -29 -19 -45
-52 -45 -23 0 -28 -4 -28 -25 0 -14 4 -25 9 -25 5 0 14 -13 21 -30 9 -21 19
-30 35 -30 22 0 40 -22 28 -34 -4 -3 -17 -6 -29 -6 -12 0 -29 -7 -38 -15 -8
-8 -21 -15 -29 -15 -28 0 -47 -12 -47 -30 0 -34 -28 -50 -85 -50 -30 0 -56 -4
-60 -10 -3 -5 -12 -7 -20 -4 -8 4 -18 -1 -21 -10 -3 -9 -13 -16 -21 -16 -9 0
-23 -8 -32 -19 -15 -17 -30 -21 -141 -37 -25 -4 -48 -11 -51 -16 -4 -6 -49
-18 -100 -28 -108 -21 -149 -35 -149 -50 0 -5 -16 -10 -35 -10 -22 0 -43 -8
-55 -20 -11 -11 -27 -20 -35 -20 -30 0 -65 -23 -65 -44 0 -48 12 -66 41 -66
22 0 29 -5 29 -20 0 -17 7 -20 46 -20 55 0 74 16 74 64 l0 36 109 0 c74 0 111
4 113 12 2 6 24 11 51 11 38 -1 51 4 76 28 17 16 31 34 31 39 0 6 9 10 20 10
11 0 20 -4 20 -10 0 -5 22 -10 49 -10 58 0 151 20 151 32 0 4 14 8 30 8 17 0
30 5 30 10 0 6 30 10 70 10 54 0 70 3 70 14 0 20 27 27 110 30 53 2 70 -1 70
-11 0 -7 -4 -13 -10 -13 -5 0 -10 -7 -10 -15 0 -9 -10 -16 -27 -16 -22 -2 -19
-3 12 -9 l40 -7 -40 -3 c-22 -1 -43 -2 -47 -1 -5 0 -8 -12 -8 -28 0 -38 -21
-43 -173 -42 -104 1 -118 -1 -124 -16 -4 -10 -13 -24 -20 -31 -23 -24 -14 -32
37 -32 l50 0 0 -50 0 -50 70 0 70 0 0 30 c0 23 4 30 20 30 11 0 20 5 20 10 0
6 30 10 70 10 40 0 70 -4 70 -10 0 -6 33 -10 80 -10 l80 0 0 -100 c0 -93 -1
-100 -20 -100 -11 0 -20 7 -20 15 0 8 -7 15 -15 15 -9 0 -15 -9 -15 -25 0 -16
6 -25 15 -25 8 0 15 -4 15 -10 0 -5 9 -10 20 -10 13 0 20 -7 20 -20 0 -18 7
-20 80 -20 47 0 80 4 80 10 0 6 33 10 80 10 l80 0 0 135 0 135 -79 0 -79 0 -4
35 c-3 24 0 35 9 35 7 0 13 5 13 10 0 6 30 10 70 10 l70 0 0 115 0 115 -32 0
c-18 -1 -53 -5 -78 -10 -27 -5 -46 -5 -48 1 -2 5 -18 9 -35 10 l-32 1 35 11
35 10 -30 7 c-29 5 -29 6 -7 12 13 4 62 5 108 3 l84 -4 0 320 0 319 -49 0
c-27 0 -61 2 -77 4 -16 2 -44 1 -63 -1z m-65 -688 c26 -25 8 -55 -32 -55 -24
0 -34 -5 -34 -15 0 -11 -12 -15 -50 -15 -43 0 -50 3 -50 20 0 13 -7 20 -20 20
-11 0 -20 5 -20 10 0 6 27 10 60 10 33 0 60 4 60 10 0 6 9 10 20 10 11 0 20 5
20 10 0 15 29 12 46 -5z m-299 -187 c-3 -8 -6 -5 -6 6 -1 11 2 17 5 13 3 -3 4
-12 1 -19z"/>
<path d="M3221 1908 c0 -9 -4 -25 -7 -35 -5 -17 -5 -17 6 0 6 10 9 25 7 35 -4
15 -5 15 -6 0z"/>
<path d="M3191 1824 c0 -11 3 -14 6 -6 3 7 2 16 -1 19 -3 4 -6 -2 -5 -13z"/>
<path d="M3170 1785 c0 -8 5 -15 10 -15 6 0 10 7 10 15 0 8 -4 15 -10 15 -5 0
-10 -7 -10 -15z"/>
<path d="M3260 1771 c0 -5 -3 -18 -6 -28 -5 -16 -4 -16 10 1 18 23 20 36 6 36
-5 0 -10 -4 -10 -9z"/>
<path d="M3148 1726 c-25 -51 -22 -80 3 -31 11 22 18 46 17 54 -2 8 -11 -3
-20 -23z"/>
<path d="M19040 1070 c0 -5 5 -10 10 -10 6 0 10 5 10 10 0 6 -4 10 -10 10 -5
0 -10 -4 -10 -10z"/>
<path d="M18196 1051 c-6 -10 3 -71 11 -71 13 0 33 32 33 54 0 19 -5 26 -19
26 -11 0 -22 -4 -25 -9z"/>
<path d="M18870 1017 c-30 -9 -32 -11 -12 -15 15 -2 22 -10 22 -27 0 -22 -21
-35 -62 -35 -21 0 -25 39 -6 58 9 9 5 12 -20 12 -22 0 -32 -5 -32 -15 0 -8 -9
-15 -20 -15 -13 0 -20 -7 -20 -20 0 -18 -7 -20 -80 -20 -73 0 -80 -2 -80 -20
0 -17 -7 -20 -50 -20 -43 0 -50 -3 -50 -20 0 -11 -4 -20 -10 -20 -5 0 -10 -9
-10 -20 0 -18 -7 -20 -79 -20 -54 0 -81 4 -83 12 -5 14 -38 -13 -38 -31 0 -10
-18 -14 -112 -26 -43 -6 -48 -9 -48 -31 0 -23 2 -24 80 -24 79 0 80 0 80 25 0
14 -4 25 -10 25 -5 0 -10 -7 -10 -15 0 -8 -9 -15 -20 -15 -19 0 -19 1 -3 20
15 17 30 20 110 20 55 0 93 4 93 10 0 6 33 10 80 10 47 0 80 -4 80 -10 0 -5
14 -10 30 -10 21 0 30 5 30 16 0 26 26 44 64 44 29 0 36 4 36 20 0 16 7 20 30
20 17 0 30 -4 30 -10 0 -5 -4 -10 -10 -10 -5 0 -10 -4 -10 -10 0 -5 22 -10 48
-10 36 0 51 5 62 20 12 16 26 20 78 20 58 0 67 3 92 30 15 17 35 30 44 30 9 0
16 8 16 20 0 11 -4 20 -10 20 -5 0 -10 8 -10 19 0 13 -10 20 -31 25 -47 9
-139 6 -179 -7z m-350 -147 c0 -5 -5 -10 -11 -10 -5 0 -7 5 -4 10 3 6 8 10 11
10 2 0 4 -4 4 -10z m-40 -34 c0 -3 -4 -8 -10 -11 -5 -3 -10 -1 -10 4 0 6 5 11
10 11 6 0 10 -2 10 -4z"/>
<path d="M18118 1013 c-10 -2 -18 -11 -18 -19 0 -11 -6 -14 -22 -9 -18 5 -20
4 -8 -4 12 -8 7 -11 -22 -11 -27 0 -38 -4 -38 -15 0 -11 12 -15 45 -15 38 0
45 3 45 20 0 13 7 20 20 20 13 0 20 -7 20 -20 0 -11 -4 -20 -10 -20 -5 0 -10
-9 -10 -20 0 -13 -7 -20 -20 -20 -16 0 -20 -7 -20 -30 0 -23 4 -30 20 -30 12
0 20 -7 20 -16 0 -9 -9 -18 -20 -21 -25 -7 -26 -23 -1 -23 10 0 21 9 24 20 4
17 14 20 61 20 l56 0 0 60 0 60 -40 0 -40 0 0 40 c0 40 -4 43 -42 33z"/>
<path d="M19360 970 c0 -5 5 -10 10 -10 6 0 10 5 10 10 0 6 -4 10 -10 10 -5 0
-10 -4 -10 -10z"/>
<path d="M18680 810 c0 -5 9 -10 20 -10 11 0 20 5 20 10 0 6 -9 10 -20 10 -11
0 -20 -4 -20 -10z"/>
<path d="M19860 701 c-8 -6 -18 -7 -22 -5 -4 3 -8 -5 -8 -18 0 -28 -17 -48
-40 -48 -9 0 -25 -9 -35 -20 -10 -11 -25 -20 -33 -20 -7 0 -26 -8 -40 -19 -15
-10 -36 -20 -47 -22 -11 -2 -24 -14 -30 -27 -10 -22 -35 -36 -75 -41 -6 0 -10
-42 -10 -101 l0 -100 80 0 c73 0 80 -2 80 -20 0 -11 6 -20 13 -20 8 -1 6 -5
-4 -13 -9 -7 -19 -22 -23 -35 -7 -19 -14 -22 -65 -22 -58 0 -101 -21 -101 -49
0 -7 -21 -11 -55 -11 -52 0 -105 -15 -105 -30 0 -4 -64 -11 -142 -16 -79 -5
-150 -9 -158 -10 -8 0 -43 -2 -77 -3 -42 -1 -67 -6 -78 -17 -9 -9 -31 -20 -48
-24 -18 -5 237 -8 566 -9 l597 -1 0 355 0 355 -62 0 c-35 0 -70 -4 -78 -9z"/>
<path d="M2617 417 c-9 -15 -23 -38 -31 -51 -8 -12 -18 -41 -22 -62 -9 -52
-32 -104 -44 -104 -6 0 -10 -5 -10 -10 0 -6 -9 -30 -21 -53 -11 -23 -29 -63
-40 -89 l-19 -48 25 0 c18 0 25 5 25 20 0 11 5 20 10 20 6 0 10 13 10 29 0 16
9 49 20 75 12 25 20 47 20 48 -1 2 10 27 25 56 20 39 31 52 48 52 17 0 19 -2
7 -10 -8 -5 -11 -12 -8 -16 4 -4 -1 -19 -12 -34 -11 -16 -20 -36 -20 -47 0
-31 -12 -63 -21 -57 -5 3 -9 -1 -9 -9 0 -7 -14 -39 -31 -70 l-31 -57 27 0 c14
0 28 6 30 12 2 7 10 27 16 43 6 17 13 42 14 56 2 24 77 184 95 203 5 5 6 15 3
22 -3 8 -1 14 5 14 11 0 21 22 28 58 8 39 -16 24 -36 -23 -14 -32 -25 -45 -40
-45 -24 0 -24 -2 -4 45 19 46 13 69 -9 32z"/>
<path d="M19330 420 c0 -5 -9 -10 -20 -10 -11 0 -20 -4 -20 -10 0 -5 6 -10 13
-10 6 0 21 -3 32 -5 11 -3 26 -1 34 4 12 8 12 12 -2 25 -18 18 -37 21 -37 6z"/>
<path d="M19330 355 c0 -8 7 -15 15 -15 8 0 15 7 15 15 0 8 -7 15 -15 15 -8 0
-15 -7 -15 -15z"/>
</g>
</svg>
